<svg xmlns="http://www.w3.org/2000/svg" xmlns:xlink="http://www.w3.org/1999/xlink" width="325" zoomAndPan="magnify" viewBox="0 0 243.75 116.249996" height="155" preserveAspectRatio="xMidYMid meet" version="1.0"><defs><g/></defs><g fill="#ffffff" fill-opacity="1"><g transform="translate(8.031589, 75.169653)"><g><path d="M 17.09375 -11.09375 L 21.640625 -11.09375 L 21.640625 -2.359375 C 20.472656 -1.484375 19.117188 -0.804688 17.578125 -0.328125 C 16.046875 0.140625 14.5 0.375 12.9375 0.375 C 10.707031 0.375 8.695312 -0.0976562 6.90625 -1.046875 C 5.125 -2.003906 3.726562 -3.328125 2.71875 -5.015625 C 1.707031 -6.710938 1.203125 -8.625 1.203125 -10.75 C 1.203125 -12.882812 1.707031 -14.796875 2.71875 -16.484375 C 3.726562 -18.179688 5.132812 -19.503906 6.9375 -20.453125 C 8.75 -21.410156 10.78125 -21.890625 13.03125 -21.890625 C 14.914062 -21.890625 16.625 -21.570312 18.15625 -20.9375 C 19.695312 -20.300781 20.988281 -19.375 22.03125 -18.15625 L 18.84375 -15.21875 C 17.300781 -16.832031 15.445312 -17.640625 13.28125 -17.640625 C 11.90625 -17.640625 10.679688 -17.351562 9.609375 -16.78125 C 8.546875 -16.207031 7.71875 -15.394531 7.125 -14.34375 C 6.53125 -13.300781 6.234375 -12.101562 6.234375 -10.75 C 6.234375 -9.425781 6.53125 -8.238281 7.125 -7.1875 C 7.71875 -6.144531 8.539062 -5.332031 9.59375 -4.75 C 10.65625 -4.164062 11.863281 -3.875 13.21875 -3.875 C 14.644531 -3.875 15.9375 -4.179688 17.09375 -4.796875 Z M 17.09375 -11.09375 "/></g></g></g><g fill="#ffffff" fill-opacity="1"><g transform="translate(31.41525, 75.169653)"><g><path d="M 10.078125 0.25 C 8.335938 0.25 6.773438 -0.113281 5.390625 -0.84375 C 4.003906 -1.570312 2.921875 -2.582031 2.140625 -3.875 C 1.367188 -5.164062 0.984375 -6.628906 0.984375 -8.265625 C 0.984375 -9.898438 1.367188 -11.363281 2.140625 -12.65625 C 2.921875 -13.945312 4.003906 -14.957031 5.390625 -15.6875 C 6.773438 -16.414062 8.335938 -16.78125 10.078125 -16.78125 C 11.816406 -16.78125 13.375 -16.414062 14.75 -15.6875 C 16.125 -14.957031 17.195312 -13.945312 17.96875 -12.65625 C 18.75 -11.363281 19.140625 -9.898438 19.140625 -8.265625 C 19.140625 -6.628906 18.75 -5.164062 17.96875 -3.875 C 17.195312 -2.582031 16.125 -1.570312 14.75 -0.84375 C 13.375 -0.113281 11.816406 0.25 10.078125 0.25 Z M 10.078125 -3.6875 C 11.304688 -3.6875 12.316406 -4.097656 13.109375 -4.921875 C 13.898438 -5.753906 14.296875 -6.867188 14.296875 -8.265625 C 14.296875 -9.660156 13.898438 -10.769531 13.109375 -11.59375 C 12.316406 -12.425781 11.304688 -12.84375 10.078125 -12.84375 C 8.847656 -12.84375 7.832031 -12.425781 7.03125 -11.59375 C 6.238281 -10.769531 5.84375 -9.660156 5.84375 -8.265625 C 5.84375 -6.867188 6.238281 -5.753906 7.03125 -4.921875 C 7.832031 -4.097656 8.847656 -3.6875 10.078125 -3.6875 Z M 10.078125 -3.6875 "/></g></g></g><g fill="#ffffff" fill-opacity="1"><g transform="translate(51.234504, 75.169653)"><g><path d="M 19.0625 -22.8125 L 19.0625 0 L 14.46875 0 L 14.46875 -1.90625 C 13.28125 -0.46875 11.5625 0.25 9.3125 0.25 C 7.757812 0.25 6.351562 -0.0976562 5.09375 -0.796875 C 3.832031 -1.492188 2.84375 -2.488281 2.125 -3.78125 C 1.40625 -5.070312 1.046875 -6.566406 1.046875 -8.265625 C 1.046875 -9.960938 1.40625 -11.457031 2.125 -12.75 C 2.84375 -14.039062 3.832031 -15.035156 5.09375 -15.734375 C 6.351562 -16.429688 7.757812 -16.78125 9.3125 -16.78125 C 11.425781 -16.78125 13.078125 -16.113281 14.265625 -14.78125 L 14.265625 -22.8125 Z M 10.140625 -3.6875 C 11.347656 -3.6875 12.351562 -4.097656 13.15625 -4.921875 C 13.957031 -5.753906 14.359375 -6.867188 14.359375 -8.265625 C 14.359375 -9.660156 13.957031 -10.769531 13.15625 -11.59375 C 12.351562 -12.425781 11.347656 -12.84375 10.140625 -12.84375 C 8.910156 -12.84375 7.894531 -12.425781 7.09375 -11.59375 C 6.300781 -10.769531 5.90625 -9.660156 5.90625 -8.265625 C 5.90625 -6.867188 6.300781 -5.753906 7.09375 -4.921875 C 7.894531 -4.097656 8.910156 -3.6875 10.140625 -3.6875 Z M 10.140625 -3.6875 "/></g></g></g><g fill="#ffffff" fill-opacity="1"><g transform="translate(72.190685, 75.169653)"><g><path d="M 10.078125 0.25 C 8.335938 0.25 6.773438 -0.113281 5.390625 -0.84375 C 4.003906 -1.570312 2.921875 -2.582031 2.140625 -3.875 C 1.367188 -5.164062 0.984375 -6.628906 0.984375 -8.265625 C 0.984375 -9.898438 1.367188 -11.363281 2.140625 -12.65625 C 2.921875 -13.945312 4.003906 -14.957031 5.390625 -15.6875 C 6.773438 -16.414062 8.335938 -16.78125 10.078125 -16.78125 C 11.816406 -16.78125 13.375 -16.414062 14.75 -15.6875 C 16.125 -14.957031 17.195312 -13.945312 17.96875 -12.65625 C 18.75 -11.363281 19.140625 -9.898438 19.140625 -8.265625 C 19.140625 -6.628906 18.75 -5.164062 17.96875 -3.875 C 17.195312 -2.582031 16.125 -1.570312 14.75 -0.84375 C 13.375 -0.113281 11.816406 0.25 10.078125 0.25 Z M 10.078125 -3.6875 C 11.304688 -3.6875 12.316406 -4.097656 13.109375 -4.921875 C 13.898438 -5.753906 14.296875 -6.867188 14.296875 -8.265625 C 14.296875 -9.660156 13.898438 -10.769531 13.109375 -11.59375 C 12.316406 -12.425781 11.304688 -12.84375 10.078125 -12.84375 C 8.847656 -12.84375 7.832031 -12.425781 7.03125 -11.59375 C 6.238281 -10.769531 5.84375 -9.660156 5.84375 -8.265625 C 5.84375 -6.867188 6.238281 -5.753906 7.03125 -4.921875 C 7.832031 -4.097656 8.847656 -3.6875 10.078125 -3.6875 Z M 10.078125 -3.6875 "/></g></g></g><g fill="#ffffff" fill-opacity="1"><g transform="translate(92.009938, 75.169653)"><g><path d="M 18.625 -16.53125 L 11.15625 1.015625 C 10.394531 2.921875 9.457031 4.257812 8.34375 5.03125 C 7.226562 5.8125 5.878906 6.203125 4.296875 6.203125 C 3.441406 6.203125 2.59375 6.066406 1.75 5.796875 C 0.90625 5.535156 0.21875 5.171875 -0.3125 4.703125 L 1.4375 1.296875 C 1.8125 1.617188 2.238281 1.867188 2.71875 2.046875 C 3.195312 2.234375 3.675781 2.328125 4.15625 2.328125 C 4.800781 2.328125 5.328125 2.171875 5.734375 1.859375 C 6.148438 1.546875 6.523438 1.019531 6.859375 0.28125 L 6.921875 0.125 L -0.25 -16.53125 L 4.703125 -16.53125 L 9.34375 -5.3125 L 14.015625 -16.53125 Z M 18.625 -16.53125 "/></g></g></g><g fill="#ffffff" fill-opacity="1"><g transform="translate(110.077729, 75.169653)"><g/></g></g><g fill="#ffffff" fill-opacity="1"><g transform="translate(118.466304, 75.169653)"><g><path d="M 17.09375 -11.09375 L 21.640625 -11.09375 L 21.640625 -2.359375 C 20.472656 -1.484375 19.117188 -0.804688 17.578125 -0.328125 C 16.046875 0.140625 14.5 0.375 12.9375 0.375 C 10.707031 0.375 8.695312 -0.0976562 6.90625 -1.046875 C 5.125 -2.003906 3.726562 -3.328125 2.71875 -5.015625 C 1.707031 -6.710938 1.203125 -8.625 1.203125 -10.75 C 1.203125 -12.882812 1.707031 -14.796875 2.71875 -16.484375 C 3.726562 -18.179688 5.132812 -19.503906 6.9375 -20.453125 C 8.75 -21.410156 10.78125 -21.890625 13.03125 -21.890625 C 14.914062 -21.890625 16.625 -21.570312 18.15625 -20.9375 C 19.695312 -20.300781 20.988281 -19.375 22.03125 -18.15625 L 18.84375 -15.21875 C 17.300781 -16.832031 15.445312 -17.640625 13.28125 -17.640625 C 11.90625 -17.640625 10.679688 -17.351562 9.609375 -16.78125 C 8.546875 -16.207031 7.71875 -15.394531 7.125 -14.34375 C 6.53125 -13.300781 6.234375 -12.101562 6.234375 -10.75 C 6.234375 -9.425781 6.53125 -8.238281 7.125 -7.1875 C 7.71875 -6.144531 8.539062 -5.332031 9.59375 -4.75 C 10.65625 -4.164062 11.863281 -3.875 13.21875 -3.875 C 14.644531 -3.875 15.9375 -4.179688 17.09375 -4.796875 Z M 17.09375 -11.09375 "/></g></g></g><g fill="#ffffff" fill-opacity="1"><g transform="translate(141.849963, 75.169653)"><g><path d="M 6.796875 -14.359375 C 7.367188 -15.148438 8.140625 -15.75 9.109375 -16.15625 C 10.085938 -16.570312 11.210938 -16.78125 12.484375 -16.78125 L 12.484375 -12.359375 C 11.941406 -12.398438 11.582031 -12.421875 11.40625 -12.421875 C 10.03125 -12.421875 8.953125 -12.035156 8.171875 -11.265625 C 7.390625 -10.492188 7 -9.34375 7 -7.8125 L 7 0 L 2.21875 0 L 2.21875 -16.53125 L 6.796875 -16.53125 Z M 6.796875 -14.359375 "/></g></g></g><g fill="#ffffff" fill-opacity="1"><g transform="translate(154.786228, 75.169653)"><g><path d="M 8.875 -16.78125 C 11.4375 -16.78125 13.40625 -16.171875 14.78125 -14.953125 C 16.15625 -13.734375 16.84375 -11.894531 16.84375 -9.4375 L 16.84375 0 L 12.359375 0 L 12.359375 -2.0625 C 11.453125 -0.519531 9.769531 0.25 7.3125 0.25 C 6.039062 0.25 4.9375 0.0351562 4 -0.390625 C 3.070312 -0.828125 2.363281 -1.421875 1.875 -2.171875 C 1.382812 -2.929688 1.140625 -3.796875 1.140625 -4.765625 C 1.140625 -6.296875 1.71875 -7.503906 2.875 -8.390625 C 4.03125 -9.273438 5.816406 -9.71875 8.234375 -9.71875 L 12.046875 -9.71875 C 12.046875 -10.757812 11.726562 -11.5625 11.09375 -12.125 C 10.457031 -12.6875 9.503906 -12.96875 8.234375 -12.96875 C 7.359375 -12.96875 6.492188 -12.828125 5.640625 -12.546875 C 4.785156 -12.273438 4.0625 -11.90625 3.46875 -11.4375 L 1.75 -14.78125 C 2.65625 -15.414062 3.738281 -15.90625 5 -16.25 C 6.257812 -16.601562 7.550781 -16.78125 8.875 -16.78125 Z M 8.515625 -2.984375 C 9.335938 -2.984375 10.0625 -3.171875 10.6875 -3.546875 C 11.320312 -3.929688 11.773438 -4.488281 12.046875 -5.21875 L 12.046875 -6.921875 L 8.765625 -6.921875 C 6.796875 -6.921875 5.8125 -6.273438 5.8125 -4.984375 C 5.8125 -4.367188 6.050781 -3.878906 6.53125 -3.515625 C 7.007812 -3.160156 7.671875 -2.984375 8.515625 -2.984375 Z M 8.515625 -2.984375 "/></g></g></g><g fill="#ffffff" fill-opacity="1"><g transform="translate(173.437832, 75.169653)"><g><path d="M 12.265625 -16.78125 C 14.316406 -16.78125 15.96875 -16.164062 17.21875 -14.9375 C 18.476562 -13.707031 19.109375 -11.882812 19.109375 -9.46875 L 19.109375 0 L 14.328125 0 L 14.328125 -8.734375 C 14.328125 -10.046875 14.035156 -11.019531 13.453125 -11.65625 C 12.878906 -12.300781 12.050781 -12.625 10.96875 -12.625 C 9.757812 -12.625 8.796875 -12.25 8.078125 -11.5 C 7.359375 -10.757812 7 -9.648438 7 -8.171875 L 7 0 L 2.21875 0 L 2.21875 -16.53125 L 6.796875 -16.53125 L 6.796875 -14.59375 C 7.429688 -15.289062 8.21875 -15.828125 9.15625 -16.203125 C 10.101562 -16.585938 11.140625 -16.78125 12.265625 -16.78125 Z M 12.265625 -16.78125 "/></g></g></g><g fill="#ffffff" fill-opacity="1"><g transform="translate(194.363286, 75.169653)"><g><path d="M 19.0625 -22.8125 L 19.0625 0 L 14.46875 0 L 14.46875 -1.90625 C 13.28125 -0.46875 11.5625 0.25 9.3125 0.25 C 7.757812 0.25 6.351562 -0.0976562 5.09375 -0.796875 C 3.832031 -1.492188 2.84375 -2.488281 2.125 -3.78125 C 1.40625 -5.070312 1.046875 -6.566406 1.046875 -8.265625 C 1.046875 -9.960938 1.40625 -11.457031 2.125 -12.75 C 2.84375 -14.039062 3.832031 -15.035156 5.09375 -15.734375 C 6.351562 -16.429688 7.757812 -16.78125 9.3125 -16.78125 C 11.425781 -16.78125 13.078125 -16.113281 14.265625 -14.78125 L 14.265625 -22.8125 Z M 10.140625 -3.6875 C 11.347656 -3.6875 12.351562 -4.097656 13.15625 -4.921875 C 13.957031 -5.753906 14.359375 -6.867188 14.359375 -8.265625 C 14.359375 -9.660156 13.957031 -10.769531 13.15625 -11.59375 C 12.351562 -12.425781 11.347656 -12.84375 10.140625 -12.84375 C 8.910156 -12.84375 7.894531 -12.425781 7.09375 -11.59375 C 6.300781 -10.769531 5.90625 -9.660156 5.90625 -8.265625 C 5.90625 -6.867188 6.300781 -5.753906 7.09375 -4.921875 C 7.894531 -4.097656 8.910156 -3.6875 10.140625 -3.6875 Z M 10.140625 -3.6875 "/></g></g></g><g fill="#ffffff" fill-opacity="1"><g transform="translate(215.319476, 75.169653)"><g><path d="M 10.078125 0.25 C 8.335938 0.25 6.773438 -0.113281 5.390625 -0.84375 C 4.003906 -1.570312 2.921875 -2.582031 2.140625 -3.875 C 1.367188 -5.164062 0.984375 -6.628906 0.984375 -8.265625 C 0.984375 -9.898438 1.367188 -11.363281 2.140625 -12.65625 C 2.921875 -13.945312 4.003906 -14.957031 5.390625 -15.6875 C 6.773438 -16.414062 8.335938 -16.78125 10.078125 -16.78125 C 11.816406 -16.78125 13.375 -16.414062 14.75 -15.6875 C 16.125 -14.957031 17.195312 -13.945312 17.96875 -12.65625 C 18.75 -11.363281 19.140625 -9.898438 19.140625 -8.265625 C 19.140625 -6.628906 18.75 -5.164062 17.96875 -3.875 C 17.195312 -2.582031 16.125 -1.570312 14.75 -0.84375 C 13.375 -0.113281 11.816406 0.25 10.078125 0.25 Z M 10.078125 -3.6875 C 11.304688 -3.6875 12.316406 -4.097656 13.109375 -4.921875 C 13.898438 -5.753906 14.296875 -6.867188 14.296875 -8.265625 C 14.296875 -9.660156 13.898438 -10.769531 13.109375 -11.59375 C 12.316406 -12.425781 11.304688 -12.84375 10.078125 -12.84375 C 8.847656 -12.84375 7.832031 -12.425781 7.03125 -11.59375 C 6.238281 -10.769531 5.84375 -9.660156 5.84375 -8.265625 C 5.84375 -6.867188 6.238281 -5.753906 7.03125 -4.921875 C 7.832031 -4.097656 8.847656 -3.6875 10.078125 -3.6875 Z M 10.078125 -3.6875 "/></g></g></g><g fill="#ffffff" fill-opacity="1"><g transform="translate(25.536702, 40.047174)"><g><path d="M 6.515625 0.375 C 5.054688 0.375 3.71875 0.101562 2.5 -0.4375 C 1.28125 -0.988281 0.285156 -1.765625 -0.484375 -2.765625 L 2.28125 -6.078125 C 3.445312 -4.503906 4.773438 -3.71875 6.265625 -3.71875 C 8.296875 -3.71875 9.3125 -4.90625 9.3125 -7.28125 L 9.3125 -17.515625 L 1.75 -17.515625 L 1.75 -21.515625 L 14.265625 -21.515625 L 14.265625 -7.5625 C 14.265625 -4.914062 13.609375 -2.929688 12.296875 -1.609375 C 10.984375 -0.285156 9.054688 0.375 6.515625 0.375 Z M 6.515625 0.375 "/></g></g></g><g fill="#ffffff" fill-opacity="1"><g transform="translate(40.930999, 40.047174)"><g><path d="M 18.875 -16.53125 L 18.875 0 L 14.328125 0 L 14.328125 -1.96875 C 13.691406 -1.25 12.929688 -0.695312 12.046875 -0.3125 C 11.160156 0.0625 10.207031 0.25 9.1875 0.25 C 7.019531 0.25 5.300781 -0.375 4.03125 -1.625 C 2.757812 -2.875 2.125 -4.726562 2.125 -7.1875 L 2.125 -16.53125 L 6.921875 -16.53125 L 6.921875 -7.90625 C 6.921875 -5.238281 8.035156 -3.90625 10.265625 -3.90625 C 11.410156 -3.90625 12.332031 -4.273438 13.03125 -5.015625 C 13.726562 -5.765625 14.078125 -6.878906 14.078125 -8.359375 L 14.078125 -16.53125 Z M 18.875 -16.53125 "/></g></g></g><g fill="#ffffff" fill-opacity="1"><g transform="translate(60.811526, 40.047174)"><g><path d="M 8.875 -16.78125 C 11.4375 -16.78125 13.40625 -16.171875 14.78125 -14.953125 C 16.15625 -13.734375 16.84375 -11.894531 16.84375 -9.4375 L 16.84375 0 L 12.359375 0 L 12.359375 -2.0625 C 11.453125 -0.519531 9.769531 0.25 7.3125 0.25 C 6.039062 0.25 4.9375 0.0351562 4 -0.390625 C 3.070312 -0.828125 2.363281 -1.421875 1.875 -2.171875 C 1.382812 -2.929688 1.140625 -3.796875 1.140625 -4.765625 C 1.140625 -6.296875 1.71875 -7.503906 2.875 -8.390625 C 4.03125 -9.273438 5.816406 -9.71875 8.234375 -9.71875 L 12.046875 -9.71875 C 12.046875 -10.757812 11.726562 -11.5625 11.09375 -12.125 C 10.457031 -12.6875 9.503906 -12.96875 8.234375 -12.96875 C 7.359375 -12.96875 6.492188 -12.828125 5.640625 -12.546875 C 4.785156 -12.273438 4.0625 -11.90625 3.46875 -11.4375 L 1.75 -14.78125 C 2.65625 -15.414062 3.738281 -15.90625 5 -16.25 C 6.257812 -16.601562 7.550781 -16.78125 8.875 -16.78125 Z M 8.515625 -2.984375 C 9.335938 -2.984375 10.0625 -3.171875 10.6875 -3.546875 C 11.320312 -3.929688 11.773438 -4.488281 12.046875 -5.21875 L 12.046875 -6.921875 L 8.765625 -6.921875 C 6.796875 -6.921875 5.8125 -6.273438 5.8125 -4.984375 C 5.8125 -4.367188 6.050781 -3.878906 6.53125 -3.515625 C 7.007812 -3.160156 7.671875 -2.984375 8.515625 -2.984375 Z M 8.515625 -2.984375 "/></g></g></g><g fill="#ffffff" fill-opacity="1"><g transform="translate(78.541117, 40.047174)"><g><path d="M 12.265625 -16.78125 C 14.316406 -16.78125 15.96875 -16.164062 17.21875 -14.9375 C 18.476562 -13.707031 19.109375 -11.882812 19.109375 -9.46875 L 19.109375 0 L 14.328125 0 L 14.328125 -8.734375 C 14.328125 -10.046875 14.035156 -11.019531 13.453125 -11.65625 C 12.878906 -12.300781 12.050781 -12.625 10.96875 -12.625 C 9.757812 -12.625 8.796875 -12.25 8.078125 -11.5 C 7.359375 -10.757812 7 -9.648438 7 -8.171875 L 7 0 L 2.21875 0 L 2.21875 -16.53125 L 6.796875 -16.53125 L 6.796875 -14.59375 C 7.429688 -15.289062 8.21875 -15.828125 9.15625 -16.203125 C 10.101562 -16.585938 11.140625 -16.78125 12.265625 -16.78125 Z M 12.265625 -16.78125 "/></g></g></g><g fill="#ffffff" fill-opacity="1"><g transform="translate(98.544565, 40.047174)"><g/></g></g><g fill="#ffffff" fill-opacity="1"><g transform="translate(106.011133, 40.047174)"><g><path d="M 2.546875 -21.515625 L 7.53125 -21.515625 L 7.53125 0 L 2.546875 0 Z M 2.546875 -21.515625 "/></g></g></g><g fill="#ffffff" fill-opacity="1"><g transform="translate(114.86045, 40.047174)"><g><path d="M 19.265625 -16.53125 L 19.265625 -2.765625 C 19.265625 0.265625 18.472656 2.515625 16.890625 3.984375 C 15.316406 5.460938 13.015625 6.203125 9.984375 6.203125 C 8.390625 6.203125 6.875 6.007812 5.4375 5.625 C 4 5.238281 2.8125 4.675781 1.875 3.9375 L 3.78125 0.484375 C 4.476562 1.066406 5.359375 1.523438 6.421875 1.859375 C 7.484375 2.191406 8.550781 2.359375 9.625 2.359375 C 11.28125 2.359375 12.5 1.984375 13.28125 1.234375 C 14.070312 0.492188 14.46875 -0.632812 14.46875 -2.15625 L 14.46875 -2.859375 C 13.21875 -1.484375 11.476562 -0.796875 9.25 -0.796875 C 7.738281 -0.796875 6.351562 -1.128906 5.09375 -1.796875 C 3.832031 -2.460938 2.832031 -3.398438 2.09375 -4.609375 C 1.351562 -5.816406 0.984375 -7.210938 0.984375 -8.796875 C 0.984375 -10.367188 1.351562 -11.757812 2.09375 -12.96875 C 2.832031 -14.175781 3.832031 -15.113281 5.09375 -15.78125 C 6.351562 -16.445312 7.738281 -16.78125 9.25 -16.78125 C 11.644531 -16.78125 13.46875 -15.992188 14.71875 -14.421875 L 14.71875 -16.53125 Z M 10.203125 -4.734375 C 11.472656 -4.734375 12.507812 -5.109375 13.3125 -5.859375 C 14.125 -6.609375 14.53125 -7.585938 14.53125 -8.796875 C 14.53125 -10.003906 14.125 -10.976562 13.3125 -11.71875 C 12.507812 -12.46875 11.472656 -12.84375 10.203125 -12.84375 C 8.929688 -12.84375 7.882812 -12.46875 7.0625 -11.71875 C 6.25 -10.976562 5.84375 -10.003906 5.84375 -8.796875 C 5.84375 -7.585938 6.25 -6.609375 7.0625 -5.859375 C 7.882812 -5.109375 8.929688 -4.734375 10.203125 -4.734375 Z M 10.203125 -4.734375 "/></g></g></g><g fill="#ffffff" fill-opacity="1"><g transform="translate(135.140445, 40.047174)"><g><path d="M 12.265625 -16.78125 C 14.316406 -16.78125 15.96875 -16.164062 17.21875 -14.9375 C 18.476562 -13.707031 19.109375 -11.882812 19.109375 -9.46875 L 19.109375 0 L 14.328125 0 L 14.328125 -8.734375 C 14.328125 -10.046875 14.035156 -11.019531 13.453125 -11.65625 C 12.878906 -12.300781 12.050781 -12.625 10.96875 -12.625 C 9.757812 -12.625 8.796875 -12.25 8.078125 -11.5 C 7.359375 -10.757812 7 -9.648438 7 -8.171875 L 7 0 L 2.21875 0 L 2.21875 -16.53125 L 6.796875 -16.53125 L 6.796875 -14.59375 C 7.429688 -15.289062 8.21875 -15.828125 9.15625 -16.203125 C 10.101562 -16.585938 11.140625 -16.78125 12.265625 -16.78125 Z M 12.265625 -16.78125 "/></g></g></g><g fill="#ffffff" fill-opacity="1"><g transform="translate(155.143893, 40.047174)"><g><path d="M 8.875 -16.78125 C 11.4375 -16.78125 13.40625 -16.171875 14.78125 -14.953125 C 16.15625 -13.734375 16.84375 -11.894531 16.84375 -9.4375 L 16.84375 0 L 12.359375 0 L 12.359375 -2.0625 C 11.453125 -0.519531 9.769531 0.25 7.3125 0.25 C 6.039062 0.25 4.9375 0.0351562 4 -0.390625 C 3.070312 -0.828125 2.363281 -1.421875 1.875 -2.171875 C 1.382812 -2.929688 1.140625 -3.796875 1.140625 -4.765625 C 1.140625 -6.296875 1.71875 -7.503906 2.875 -8.390625 C 4.03125 -9.273438 5.816406 -9.71875 8.234375 -9.71875 L 12.046875 -9.71875 C 12.046875 -10.757812 11.726562 -11.5625 11.09375 -12.125 C 10.457031 -12.6875 9.503906 -12.96875 8.234375 -12.96875 C 7.359375 -12.96875 6.492188 -12.828125 5.640625 -12.546875 C 4.785156 -12.273438 4.0625 -11.90625 3.46875 -11.4375 L 1.75 -14.78125 C 2.65625 -15.414062 3.738281 -15.90625 5 -16.25 C 6.257812 -16.601562 7.550781 -16.78125 8.875 -16.78125 Z M 8.515625 -2.984375 C 9.335938 -2.984375 10.0625 -3.171875 10.6875 -3.546875 C 11.320312 -3.929688 11.773438 -4.488281 12.046875 -5.21875 L 12.046875 -6.921875 L 8.765625 -6.921875 C 6.796875 -6.921875 5.8125 -6.273438 5.8125 -4.984375 C 5.8125 -4.367188 6.050781 -3.878906 6.53125 -3.515625 C 7.007812 -3.160156 7.671875 -2.984375 8.515625 -2.984375 Z M 8.515625 -2.984375 "/></g></g></g><g fill="#ffffff" fill-opacity="1"><g transform="translate(172.87349, 40.047174)"><g><path d="M 10.203125 0.25 C 8.441406 0.25 6.859375 -0.113281 5.453125 -0.84375 C 4.046875 -1.570312 2.945312 -2.582031 2.15625 -3.875 C 1.375 -5.164062 0.984375 -6.628906 0.984375 -8.265625 C 0.984375 -9.898438 1.375 -11.363281 2.15625 -12.65625 C 2.945312 -13.945312 4.046875 -14.957031 5.453125 -15.6875 C 6.859375 -16.414062 8.441406 -16.78125 10.203125 -16.78125 C 11.941406 -16.78125 13.460938 -16.414062 14.765625 -15.6875 C 16.066406 -14.957031 17.015625 -13.921875 17.609375 -12.578125 L 13.890625 -10.578125 C 13.023438 -12.085938 11.785156 -12.84375 10.171875 -12.84375 C 8.921875 -12.84375 7.882812 -12.429688 7.0625 -11.609375 C 6.25 -10.796875 5.84375 -9.679688 5.84375 -8.265625 C 5.84375 -6.847656 6.25 -5.726562 7.0625 -4.90625 C 7.882812 -4.09375 8.921875 -3.6875 10.171875 -3.6875 C 11.804688 -3.6875 13.046875 -4.445312 13.890625 -5.96875 L 17.609375 -3.9375 C 17.015625 -2.625 16.066406 -1.597656 14.765625 -0.859375 C 13.460938 -0.117188 11.941406 0.25 10.203125 0.25 Z M 10.203125 0.25 "/></g></g></g><g fill="#ffffff" fill-opacity="1"><g transform="translate(189.804167, 40.047174)"><g><path d="M 2.21875 -16.53125 L 7 -16.53125 L 7 0 L 2.21875 0 Z M 4.609375 -18.84375 C 3.722656 -18.84375 3.003906 -19.097656 2.453125 -19.609375 C 1.898438 -20.117188 1.625 -20.753906 1.625 -21.515625 C 1.625 -22.273438 1.898438 -22.910156 2.453125 -23.421875 C 3.003906 -23.929688 3.722656 -24.1875 4.609375 -24.1875 C 5.484375 -24.1875 6.195312 -23.941406 6.75 -23.453125 C 7.3125 -22.960938 7.59375 -22.347656 7.59375 -21.609375 C 7.59375 -20.804688 7.3125 -20.144531 6.75 -19.625 C 6.195312 -19.101562 5.484375 -18.84375 4.609375 -18.84375 Z M 4.609375 -18.84375 "/></g></g></g><g fill="#ffffff" fill-opacity="1"><g transform="translate(197.823831, 40.047174)"><g><path d="M 10.078125 0.25 C 8.335938 0.25 6.773438 -0.113281 5.390625 -0.84375 C 4.003906 -1.570312 2.921875 -2.582031 2.140625 -3.875 C 1.367188 -5.164062 0.984375 -6.628906 0.984375 -8.265625 C 0.984375 -9.898438 1.367188 -11.363281 2.140625 -12.65625 C 2.921875 -13.945312 4.003906 -14.957031 5.390625 -15.6875 C 6.773438 -16.414062 8.335938 -16.78125 10.078125 -16.78125 C 11.816406 -16.78125 13.375 -16.414062 14.75 -15.6875 C 16.125 -14.957031 17.195312 -13.945312 17.96875 -12.65625 C 18.75 -11.363281 19.140625 -9.898438 19.140625 -8.265625 C 19.140625 -6.628906 18.75 -5.164062 17.96875 -3.875 C 17.195312 -2.582031 16.125 -1.570312 14.75 -0.84375 C 13.375 -0.113281 11.816406 0.25 10.078125 0.25 Z M 10.078125 -3.6875 C 11.304688 -3.6875 12.316406 -4.097656 13.109375 -4.921875 C 13.898438 -5.753906 14.296875 -6.867188 14.296875 -8.265625 C 14.296875 -9.660156 13.898438 -10.769531 13.109375 -11.59375 C 12.316406 -12.425781 11.304688 -12.84375 10.078125 -12.84375 C 8.847656 -12.84375 7.832031 -12.425781 7.03125 -11.59375 C 6.238281 -10.769531 5.84375 -9.660156 5.84375 -8.265625 C 5.84375 -6.867188 6.238281 -5.753906 7.03125 -4.921875 C 7.832031 -4.097656 8.847656 -3.6875 10.078125 -3.6875 Z M 10.078125 -3.6875 "/></g></g></g><path stroke-linecap="round" transform="matrix(0.745192, 0.000000000000000042, -0.000000000000000042, 0.745192, 27.833074, 88.762499)" fill="none" stroke-linejoin="miter" d="M 0.501827 0.502179 L 251.564345 0.502179 " stroke="#ffffff" stroke-width="1" stroke-opacity="1" stroke-miterlimit="4"/><g fill="#ffffff" fill-opacity="1"><g transform="translate(41.923906, 105.398428)"><g><path d="M 3.328125 0.125 C 2.742188 0.125 2.175781 0.046875 1.625 -0.109375 C 1.070312 -0.273438 0.628906 -0.484375 0.296875 -0.734375 L 0.890625 -2.03125 C 1.203125 -1.800781 1.578125 -1.613281 2.015625 -1.46875 C 2.460938 -1.320312 2.90625 -1.25 3.34375 -1.25 C 3.832031 -1.25 4.191406 -1.320312 4.421875 -1.46875 C 4.660156 -1.613281 4.78125 -1.8125 4.78125 -2.0625 C 4.78125 -2.238281 4.710938 -2.382812 4.578125 -2.5 C 4.441406 -2.613281 4.265625 -2.707031 4.046875 -2.78125 C 3.828125 -2.851562 3.535156 -2.929688 3.171875 -3.015625 C 2.597656 -3.148438 2.128906 -3.285156 1.765625 -3.421875 C 1.398438 -3.554688 1.085938 -3.769531 0.828125 -4.0625 C 0.578125 -4.363281 0.453125 -4.765625 0.453125 -5.265625 C 0.453125 -5.703125 0.566406 -6.09375 0.796875 -6.4375 C 1.035156 -6.789062 1.390625 -7.070312 1.859375 -7.28125 C 2.328125 -7.488281 2.90625 -7.59375 3.59375 -7.59375 C 4.070312 -7.59375 4.535156 -7.535156 4.984375 -7.421875 C 5.441406 -7.304688 5.84375 -7.140625 6.1875 -6.921875 L 5.640625 -5.609375 C 4.953125 -6.003906 4.265625 -6.203125 3.578125 -6.203125 C 3.097656 -6.203125 2.738281 -6.125 2.5 -5.96875 C 2.269531 -5.8125 2.15625 -5.601562 2.15625 -5.34375 C 2.15625 -5.09375 2.289062 -4.90625 2.5625 -4.78125 C 2.832031 -4.65625 3.238281 -4.53125 3.78125 -4.40625 C 4.351562 -4.269531 4.816406 -4.132812 5.171875 -4 C 5.535156 -3.863281 5.847656 -3.648438 6.109375 -3.359375 C 6.367188 -3.078125 6.5 -2.6875 6.5 -2.1875 C 6.5 -1.757812 6.378906 -1.367188 6.140625 -1.015625 C 5.898438 -0.660156 5.539062 -0.378906 5.0625 -0.171875 C 4.59375 0.0234375 4.015625 0.125 3.328125 0.125 Z M 3.328125 0.125 "/></g></g></g><g fill="#ffffff" fill-opacity="1"><g transform="translate(51.589065, 105.398428)"><g><path d="M 3.5 0.078125 C 2.894531 0.078125 2.351562 -0.046875 1.875 -0.296875 C 1.394531 -0.546875 1.019531 -0.894531 0.75 -1.34375 C 0.476562 -1.789062 0.34375 -2.296875 0.34375 -2.859375 C 0.34375 -3.429688 0.476562 -3.941406 0.75 -4.390625 C 1.019531 -4.835938 1.394531 -5.1875 1.875 -5.4375 C 2.351562 -5.6875 2.894531 -5.8125 3.5 -5.8125 C 4.101562 -5.8125 4.640625 -5.6875 5.109375 -5.4375 C 5.585938 -5.1875 5.960938 -4.835938 6.234375 -4.390625 C 6.503906 -3.941406 6.640625 -3.429688 6.640625 -2.859375 C 6.640625 -2.296875 6.503906 -1.789062 6.234375 -1.34375 C 5.960938 -0.894531 5.585938 -0.546875 5.109375 -0.296875 C 4.640625 -0.046875 4.101562 0.078125 3.5 0.078125 Z M 3.5 -1.28125 C 3.925781 -1.28125 4.273438 -1.421875 4.546875 -1.703125 C 4.816406 -1.992188 4.953125 -2.378906 4.953125 -2.859375 C 4.953125 -3.347656 4.816406 -3.734375 4.546875 -4.015625 C 4.273438 -4.304688 3.925781 -4.453125 3.5 -4.453125 C 3.070312 -4.453125 2.71875 -4.304688 2.4375 -4.015625 C 2.164062 -3.734375 2.03125 -3.347656 2.03125 -2.859375 C 2.03125 -2.378906 2.164062 -1.992188 2.4375 -1.703125 C 2.71875 -1.421875 3.070312 -1.28125 3.5 -1.28125 Z M 3.5 -1.28125 "/></g></g></g><g fill="#ffffff" fill-opacity="1"><g transform="translate(61.435143, 105.398428)"><g><path d="M 2.59375 -5.609375 L 4.0625 -5.609375 L 4.0625 -4.328125 L 2.625 -4.328125 L 2.625 0 L 0.96875 0 L 0.96875 -4.328125 L 0.078125 -4.328125 L 0.078125 -5.609375 L 0.96875 -5.609375 L 0.96875 -5.859375 C 0.96875 -6.515625 1.160156 -7.035156 1.546875 -7.421875 C 1.929688 -7.804688 2.476562 -8 3.1875 -8 C 3.4375 -8 3.671875 -7.96875 3.890625 -7.90625 C 4.117188 -7.851562 4.304688 -7.78125 4.453125 -7.6875 L 4.015625 -6.484375 C 3.828125 -6.617188 3.601562 -6.6875 3.34375 -6.6875 C 2.84375 -6.6875 2.59375 -6.40625 2.59375 -5.84375 Z M 2.59375 -5.609375 "/></g></g></g><g fill="#ffffff" fill-opacity="1"><g transform="translate(68.42909, 105.398428)"><g><path d="M 4.46875 -0.28125 C 4.300781 -0.15625 4.097656 -0.0625 3.859375 0 C 3.617188 0.0507812 3.367188 0.078125 3.109375 0.078125 C 2.429688 0.078125 1.90625 -0.09375 1.53125 -0.4375 C 1.15625 -0.78125 0.96875 -1.289062 0.96875 -1.96875 L 0.96875 -4.328125 L 0.078125 -4.328125 L 0.078125 -5.609375 L 0.96875 -5.609375 L 0.96875 -7 L 2.625 -7 L 2.625 -5.609375 L 4.0625 -5.609375 L 4.0625 -4.328125 L 2.625 -4.328125 L 2.625 -2 C 2.625 -1.75 2.6875 -1.554688 2.8125 -1.421875 C 2.9375 -1.296875 3.113281 -1.234375 3.34375 -1.234375 C 3.601562 -1.234375 3.828125 -1.304688 4.015625 -1.453125 Z M 4.46875 -0.28125 "/></g></g></g><g fill="#ffffff" fill-opacity="1"><g transform="translate(75.933866, 105.398428)"><g><path d="M 9.96875 -5.734375 L 7.890625 0 L 6.296875 0 L 5.015625 -3.5625 L 3.671875 0 L 2.078125 0 L 0.015625 -5.734375 L 1.578125 -5.734375 L 2.9375 -1.859375 L 4.34375 -5.734375 L 5.75 -5.734375 L 7.109375 -1.859375 L 8.5 -5.734375 Z M 9.96875 -5.734375 "/></g></g></g><g fill="#ffffff" fill-opacity="1"><g transform="translate(88.781067, 105.398428)"><g><path d="M 3.078125 -5.8125 C 3.960938 -5.8125 4.644531 -5.597656 5.125 -5.171875 C 5.601562 -4.753906 5.84375 -4.117188 5.84375 -3.265625 L 5.84375 0 L 4.28125 0 L 4.28125 -0.71875 C 3.96875 -0.1875 3.382812 0.078125 2.53125 0.078125 C 2.09375 0.078125 1.710938 0.00390625 1.390625 -0.140625 C 1.066406 -0.285156 0.816406 -0.488281 0.640625 -0.75 C 0.472656 -1.019531 0.390625 -1.320312 0.390625 -1.65625 C 0.390625 -2.1875 0.585938 -2.601562 0.984375 -2.90625 C 1.390625 -3.21875 2.015625 -3.375 2.859375 -3.375 L 4.171875 -3.375 C 4.171875 -3.726562 4.0625 -4.003906 3.84375 -4.203125 C 3.625 -4.398438 3.296875 -4.5 2.859375 -4.5 C 2.546875 -4.5 2.242188 -4.445312 1.953125 -4.34375 C 1.660156 -4.25 1.410156 -4.125 1.203125 -3.96875 L 0.609375 -5.125 C 0.921875 -5.34375 1.296875 -5.507812 1.734375 -5.625 C 2.171875 -5.75 2.617188 -5.8125 3.078125 -5.8125 Z M 2.953125 -1.03125 C 3.234375 -1.03125 3.484375 -1.09375 3.703125 -1.21875 C 3.921875 -1.351562 4.078125 -1.550781 4.171875 -1.8125 L 4.171875 -2.390625 L 3.03125 -2.390625 C 2.351562 -2.390625 2.015625 -2.164062 2.015625 -1.71875 C 2.015625 -1.507812 2.097656 -1.34375 2.265625 -1.21875 C 2.429688 -1.09375 2.660156 -1.03125 2.953125 -1.03125 Z M 2.953125 -1.03125 "/></g></g></g><g fill="#ffffff" fill-opacity="1"><g transform="translate(98.222734, 105.398428)"><g><path d="M 2.359375 -4.96875 C 2.554688 -5.25 2.820312 -5.457031 3.15625 -5.59375 C 3.5 -5.738281 3.890625 -5.8125 4.328125 -5.8125 L 4.328125 -4.28125 C 4.140625 -4.300781 4.015625 -4.3125 3.953125 -4.3125 C 3.472656 -4.3125 3.097656 -4.175781 2.828125 -3.90625 C 2.554688 -3.632812 2.421875 -3.234375 2.421875 -2.703125 L 2.421875 0 L 0.765625 0 L 0.765625 -5.734375 L 2.359375 -5.734375 Z M 2.359375 -4.96875 "/></g></g></g><g fill="#ffffff" fill-opacity="1"><g transform="translate(105.684941, 105.398428)"><g><path d="M 6.390625 -2.84375 C 6.390625 -2.820312 6.375 -2.671875 6.34375 -2.390625 L 2.015625 -2.390625 C 2.085938 -2.035156 2.269531 -1.753906 2.5625 -1.546875 C 2.851562 -1.347656 3.21875 -1.25 3.65625 -1.25 C 3.957031 -1.25 4.222656 -1.289062 4.453125 -1.375 C 4.679688 -1.46875 4.894531 -1.609375 5.09375 -1.796875 L 5.984375 -0.84375 C 5.441406 -0.226562 4.648438 0.078125 3.609375 0.078125 C 2.960938 0.078125 2.390625 -0.046875 1.890625 -0.296875 C 1.398438 -0.546875 1.019531 -0.894531 0.75 -1.34375 C 0.476562 -1.789062 0.34375 -2.296875 0.34375 -2.859375 C 0.34375 -3.421875 0.472656 -3.925781 0.734375 -4.375 C 1.003906 -4.832031 1.367188 -5.1875 1.828125 -5.4375 C 2.296875 -5.6875 2.820312 -5.8125 3.40625 -5.8125 C 3.957031 -5.8125 4.460938 -5.691406 4.921875 -5.453125 C 5.378906 -5.210938 5.738281 -4.863281 6 -4.40625 C 6.257812 -3.957031 6.390625 -3.4375 6.390625 -2.84375 Z M 3.40625 -4.5625 C 3.03125 -4.5625 2.710938 -4.453125 2.453125 -4.234375 C 2.203125 -4.023438 2.050781 -3.738281 2 -3.375 L 4.8125 -3.375 C 4.757812 -3.726562 4.601562 -4.015625 4.34375 -4.234375 C 4.09375 -4.453125 3.78125 -4.5625 3.40625 -4.5625 Z M 3.40625 -4.5625 "/></g></g></g><g fill="#ffffff" fill-opacity="1"><g transform="translate(115.275608, 105.398428)"><g/></g></g><g fill="#ffffff" fill-opacity="1"><g transform="translate(121.162747, 105.398428)"><g><path d="M 0.890625 -7.453125 L 4.265625 -7.453125 C 5.078125 -7.453125 5.796875 -7.296875 6.421875 -6.984375 C 7.046875 -6.679688 7.53125 -6.25 7.875 -5.6875 C 8.21875 -5.125 8.390625 -4.472656 8.390625 -3.734375 C 8.390625 -2.984375 8.21875 -2.328125 7.875 -1.765625 C 7.53125 -1.203125 7.046875 -0.765625 6.421875 -0.453125 C 5.796875 -0.148438 5.078125 0 4.265625 0 L 0.890625 0 Z M 4.1875 -1.421875 C 4.9375 -1.421875 5.53125 -1.628906 5.96875 -2.046875 C 6.414062 -2.460938 6.640625 -3.023438 6.640625 -3.734375 C 6.640625 -4.441406 6.414062 -5.003906 5.96875 -5.421875 C 5.53125 -5.835938 4.9375 -6.046875 4.1875 -6.046875 L 2.609375 -6.046875 L 2.609375 -1.421875 Z M 4.1875 -1.421875 "/></g></g></g><g fill="#ffffff" fill-opacity="1"><g transform="translate(132.828651, 105.398428)"><g><path d="M 6.390625 -2.84375 C 6.390625 -2.820312 6.375 -2.671875 6.34375 -2.390625 L 2.015625 -2.390625 C 2.085938 -2.035156 2.269531 -1.753906 2.5625 -1.546875 C 2.851562 -1.347656 3.21875 -1.25 3.65625 -1.25 C 3.957031 -1.25 4.222656 -1.289062 4.453125 -1.375 C 4.679688 -1.46875 4.894531 -1.609375 5.09375 -1.796875 L 5.984375 -0.84375 C 5.441406 -0.226562 4.648438 0.078125 3.609375 0.078125 C 2.960938 0.078125 2.390625 -0.046875 1.890625 -0.296875 C 1.398438 -0.546875 1.019531 -0.894531 0.75 -1.34375 C 0.476562 -1.789062 0.34375 -2.296875 0.34375 -2.859375 C 0.34375 -3.421875 0.472656 -3.925781 0.734375 -4.375 C 1.003906 -4.832031 1.367188 -5.1875 1.828125 -5.4375 C 2.296875 -5.6875 2.820312 -5.8125 3.40625 -5.8125 C 3.957031 -5.8125 4.460938 -5.691406 4.921875 -5.453125 C 5.378906 -5.210938 5.738281 -4.863281 6 -4.40625 C 6.257812 -3.957031 6.390625 -3.4375 6.390625 -2.84375 Z M 3.40625 -4.5625 C 3.03125 -4.5625 2.710938 -4.453125 2.453125 -4.234375 C 2.203125 -4.023438 2.050781 -3.738281 2 -3.375 L 4.8125 -3.375 C 4.757812 -3.726562 4.601562 -4.015625 4.34375 -4.234375 C 4.09375 -4.453125 3.78125 -4.5625 3.40625 -4.5625 Z M 3.40625 -4.5625 "/></g></g></g><g fill="#ffffff" fill-opacity="1"><g transform="translate(142.419317, 105.398428)"><g><path d="M 6.453125 -5.734375 L 4.03125 0 L 2.328125 0 L -0.078125 -5.734375 L 1.625 -5.734375 L 3.21875 -1.828125 L 4.859375 -5.734375 Z M 6.453125 -5.734375 "/></g></g></g><g fill="#ffffff" fill-opacity="1"><g transform="translate(151.658787, 105.398428)"><g><path d="M 6.390625 -2.84375 C 6.390625 -2.820312 6.375 -2.671875 6.34375 -2.390625 L 2.015625 -2.390625 C 2.085938 -2.035156 2.269531 -1.753906 2.5625 -1.546875 C 2.851562 -1.347656 3.21875 -1.25 3.65625 -1.25 C 3.957031 -1.25 4.222656 -1.289062 4.453125 -1.375 C 4.679688 -1.46875 4.894531 -1.609375 5.09375 -1.796875 L 5.984375 -0.84375 C 5.441406 -0.226562 4.648438 0.078125 3.609375 0.078125 C 2.960938 0.078125 2.390625 -0.046875 1.890625 -0.296875 C 1.398438 -0.546875 1.019531 -0.894531 0.75 -1.34375 C 0.476562 -1.789062 0.34375 -2.296875 0.34375 -2.859375 C 0.34375 -3.421875 0.472656 -3.925781 0.734375 -4.375 C 1.003906 -4.832031 1.367188 -5.1875 1.828125 -5.4375 C 2.296875 -5.6875 2.820312 -5.8125 3.40625 -5.8125 C 3.957031 -5.8125 4.460938 -5.691406 4.921875 -5.453125 C 5.378906 -5.210938 5.738281 -4.863281 6 -4.40625 C 6.257812 -3.957031 6.390625 -3.4375 6.390625 -2.84375 Z M 3.40625 -4.5625 C 3.03125 -4.5625 2.710938 -4.453125 2.453125 -4.234375 C 2.203125 -4.023438 2.050781 -3.738281 2 -3.375 L 4.8125 -3.375 C 4.757812 -3.726562 4.601562 -4.015625 4.34375 -4.234375 C 4.09375 -4.453125 3.78125 -4.5625 3.40625 -4.5625 Z M 3.40625 -4.5625 "/></g></g></g><g fill="#ffffff" fill-opacity="1"><g transform="translate(161.249453, 105.398428)"><g><path d="M 0.765625 -7.90625 L 2.421875 -7.90625 L 2.421875 0 L 0.765625 0 Z M 0.765625 -7.90625 "/></g></g></g><g fill="#ffffff" fill-opacity="1"><g transform="translate(167.328155, 105.398428)"><g><path d="M 3.5 0.078125 C 2.894531 0.078125 2.351562 -0.046875 1.875 -0.296875 C 1.394531 -0.546875 1.019531 -0.894531 0.75 -1.34375 C 0.476562 -1.789062 0.34375 -2.296875 0.34375 -2.859375 C 0.34375 -3.429688 0.476562 -3.941406 0.75 -4.390625 C 1.019531 -4.835938 1.394531 -5.1875 1.875 -5.4375 C 2.351562 -5.6875 2.894531 -5.8125 3.5 -5.8125 C 4.101562 -5.8125 4.640625 -5.6875 5.109375 -5.4375 C 5.585938 -5.1875 5.960938 -4.835938 6.234375 -4.390625 C 6.503906 -3.941406 6.640625 -3.429688 6.640625 -2.859375 C 6.640625 -2.296875 6.503906 -1.789062 6.234375 -1.34375 C 5.960938 -0.894531 5.585938 -0.546875 5.109375 -0.296875 C 4.640625 -0.046875 4.101562 0.078125 3.5 0.078125 Z M 3.5 -1.28125 C 3.925781 -1.28125 4.273438 -1.421875 4.546875 -1.703125 C 4.816406 -1.992188 4.953125 -2.378906 4.953125 -2.859375 C 4.953125 -3.347656 4.816406 -3.734375 4.546875 -4.015625 C 4.273438 -4.304688 3.925781 -4.453125 3.5 -4.453125 C 3.070312 -4.453125 2.71875 -4.304688 2.4375 -4.015625 C 2.164062 -3.734375 2.03125 -3.347656 2.03125 -2.859375 C 2.03125 -2.378906 2.164062 -1.992188 2.4375 -1.703125 C 2.71875 -1.421875 3.070312 -1.28125 3.5 -1.28125 Z M 3.5 -1.28125 "/></g></g></g><g fill="#ffffff" fill-opacity="1"><g transform="translate(177.174231, 105.398428)"><g><path d="M 4.15625 -5.8125 C 4.6875 -5.8125 5.171875 -5.6875 5.609375 -5.4375 C 6.046875 -5.195312 6.390625 -4.851562 6.640625 -4.40625 C 6.890625 -3.96875 7.015625 -3.453125 7.015625 -2.859375 C 7.015625 -2.273438 6.890625 -1.757812 6.640625 -1.3125 C 6.390625 -0.875 6.046875 -0.53125 5.609375 -0.28125 C 5.171875 -0.0390625 4.6875 0.078125 4.15625 0.078125 C 3.425781 0.078125 2.847656 -0.148438 2.421875 -0.609375 L 2.421875 2.0625 L 0.765625 2.0625 L 0.765625 -5.734375 L 2.359375 -5.734375 L 2.359375 -5.078125 C 2.765625 -5.566406 3.363281 -5.8125 4.15625 -5.8125 Z M 3.875 -1.28125 C 4.289062 -1.28125 4.632812 -1.421875 4.90625 -1.703125 C 5.1875 -1.992188 5.328125 -2.378906 5.328125 -2.859375 C 5.328125 -3.347656 5.1875 -3.734375 4.90625 -4.015625 C 4.632812 -4.304688 4.289062 -4.453125 3.875 -4.453125 C 3.445312 -4.453125 3.09375 -4.304688 2.8125 -4.015625 C 2.539062 -3.734375 2.40625 -3.347656 2.40625 -2.859375 C 2.40625 -2.378906 2.539062 -1.992188 2.8125 -1.703125 C 3.09375 -1.421875 3.445312 -1.28125 3.875 -1.28125 Z M 3.875 -1.28125 "/></g></g></g><g fill="#ffffff" fill-opacity="1"><g transform="translate(187.392789, 105.398428)"><g><path d="M 6.390625 -2.84375 C 6.390625 -2.820312 6.375 -2.671875 6.34375 -2.390625 L 2.015625 -2.390625 C 2.085938 -2.035156 2.269531 -1.753906 2.5625 -1.546875 C 2.851562 -1.347656 3.21875 -1.25 3.65625 -1.25 C 3.957031 -1.25 4.222656 -1.289062 4.453125 -1.375 C 4.679688 -1.46875 4.894531 -1.609375 5.09375 -1.796875 L 5.984375 -0.84375 C 5.441406 -0.226562 4.648438 0.078125 3.609375 0.078125 C 2.960938 0.078125 2.390625 -0.046875 1.890625 -0.296875 C 1.398438 -0.546875 1.019531 -0.894531 0.75 -1.34375 C 0.476562 -1.789062 0.34375 -2.296875 0.34375 -2.859375 C 0.34375 -3.421875 0.472656 -3.925781 0.734375 -4.375 C 1.003906 -4.832031 1.367188 -5.1875 1.828125 -5.4375 C 2.296875 -5.6875 2.820312 -5.8125 3.40625 -5.8125 C 3.957031 -5.8125 4.460938 -5.691406 4.921875 -5.453125 C 5.378906 -5.210938 5.738281 -4.863281 6 -4.40625 C 6.257812 -3.957031 6.390625 -3.4375 6.390625 -2.84375 Z M 3.40625 -4.5625 C 3.03125 -4.5625 2.710938 -4.453125 2.453125 -4.234375 C 2.203125 -4.023438 2.050781 -3.738281 2 -3.375 L 4.8125 -3.375 C 4.757812 -3.726562 4.601562 -4.015625 4.34375 -4.234375 C 4.09375 -4.453125 3.78125 -4.5625 3.40625 -4.5625 Z M 3.40625 -4.5625 "/></g></g></g><g fill="#ffffff" fill-opacity="1"><g transform="translate(196.983455, 105.398428)"><g><path d="M 2.359375 -4.96875 C 2.554688 -5.25 2.820312 -5.457031 3.15625 -5.59375 C 3.5 -5.738281 3.890625 -5.8125 4.328125 -5.8125 L 4.328125 -4.28125 C 4.140625 -4.300781 4.015625 -4.3125 3.953125 -4.3125 C 3.472656 -4.3125 3.097656 -4.175781 2.828125 -3.90625 C 2.554688 -3.632812 2.421875 -3.234375 2.421875 -2.703125 L 2.421875 0 L 0.765625 0 L 0.765625 -5.734375 L 2.359375 -5.734375 Z M 2.359375 -4.96875 "/></g></g></g></svg>