<?xml version='1.0' encoding='utf-8'?>
<svg xmlns="http://www.w3.org/2000/svg" fill="none" viewBox="0 0 1920 1080" width="1920" height="1080"><defs><clipPath id="assetClipPath_WUNvxjO-"><path d="m0 0 h 2397 v 1104 h -2397 v -1104 z" id="path_jcQ_GQ8I" fill="#ffffff" /></clipPath><clipPath id="assetClipPath_Vj-WNjm3"><path d="m0 0 h 1521 v 9 h -1521 v -9 z" id="path_unfn6N3e" fill="#ffffff" /></clipPath><clipPath id="assetClipPath_Ohq24UZI"><path d="m0 0 h 1407 v 396 h -1407 v -396 z" id="path_cYlzDGza" fill="#ffffff" /></clipPath></defs><g transform="translate(-237 -132)" data-asset-index="-1"><g clip-path="url(#assetClipPath_WUNvxjO-)" transform="scale(1 1)" data-asset-index="-1"><path fill="#FFFFFF" d="M407.94 508.92Q390.90 508.92 376.86 502.56Q362.82 496.20 353.70 484.44L353.70 484.44L374.82 458.52Q388.50 477.00 405.78 477.00L405.78 477.00Q429.78 477.00 429.78 449.16L429.78 449.16L429.78 345.24L370.98 345.24L370.98 314.04L468.66 314.04L468.66 447.00Q468.66 477.96 453.30 493.44Q437.94 508.92 407.94 508.92L407.94 508.92Z" /><path fill="#FFFFFF" d="M597.06 352.92L634.50 352.92L634.50 482.04L598.98 482.04L598.98 466.68Q591.54 475.08 581.22 479.52Q570.90 483.96 558.90 483.96L558.90 483.96Q533.46 483.96 518.58 469.32Q503.70 454.68 503.70 425.88L503.70 425.88L503.70 352.92L541.14 352.92L541.14 420.36Q541.14 451.56 567.30 451.56L567.30 451.56Q580.74 451.56 588.90 442.80Q597.06 434.04 597.06 416.76L597.06 416.76L597.06 352.92Z" /><path fill="#FFFFFF" d="M762.90 352.92L800.34 352.92L800.34 482.04L764.58 482.04L764.58 467.16Q750.66 483.96 724.26 483.96L724.26 483.96Q706.02 483.96 691.26 475.80Q676.50 467.64 668.10 452.52Q659.70 437.40 659.70 417.48L659.70 417.48Q659.70 397.56 668.10 382.44Q676.50 367.32 691.26 359.16Q706.02 351 724.26 351L724.26 351Q748.98 351 762.90 366.60L762.90 366.60L762.90 352.92ZM730.74 453.24Q744.90 453.24 754.26 443.52Q763.62 433.80 763.62 417.48L763.62 417.48Q763.62 401.16 754.26 391.44Q744.90 381.72 730.74 381.72L730.74 381.72Q716.34 381.72 706.98 391.44Q697.62 401.16 697.62 417.48L697.62 417.48Q697.62 433.80 706.98 443.52Q716.34 453.24 730.74 453.24L730.74 453.24Z" /><path fill="#FFFFFF" d="M913.38 351Q937.38 351 952.14 365.40Q966.90 379.80 966.90 408.12L966.90 408.12L966.90 482.04L929.46 482.04L929.46 413.88Q929.46 398.52 922.74 390.96Q916.02 383.40 903.30 383.40L903.30 383.40Q889.14 383.40 880.74 392.16Q872.34 400.92 872.34 418.20L872.34 418.20L872.34 482.04L834.90 482.04L834.90 352.92L870.66 352.92L870.66 368.04Q878.10 359.88 889.14 355.44Q900.18 351 913.38 351L913.38 351Z" /><path fill="#FFFFFF" d="M1157.94 345.24L1128.90 345.24L1128.90 450.84L1157.94 450.84L1157.94 482.04L1060.74 482.04L1060.74 450.84L1090.02 450.84L1090.02 345.24L1060.74 345.24L1060.74 314.04L1157.94 314.04L1157.94 345.24Z" /><path fill="#FFFFFF" d="M1282.26 352.92L1317.78 352.92L1317.78 460.44Q1317.78 495.96 1299.30 513.24Q1280.82 530.52 1245.30 530.52L1245.30 530.52Q1226.58 530.52 1209.78 525.96Q1192.98 521.40 1181.94 512.76L1181.94 512.76L1196.82 485.88Q1204.98 492.60 1217.46 496.56Q1229.94 500.52 1242.42 500.52L1242.42 500.52Q1261.86 500.52 1271.10 491.76Q1280.34 483.00 1280.34 465.24L1280.34 465.24L1280.34 459.72Q1265.70 475.80 1239.54 475.80L1239.54 475.80Q1221.78 475.80 1207.02 468.00Q1192.26 460.20 1183.62 446.04Q1174.98 431.88 1174.98 413.40L1174.98 413.40Q1174.98 394.92 1183.62 380.76Q1192.26 366.60 1207.02 358.80Q1221.78 351 1239.54 351L1239.54 351Q1267.62 351 1282.26 369.48L1282.26 369.48L1282.26 352.92ZM1246.98 445.08Q1261.86 445.08 1271.34 436.32Q1280.82 427.56 1280.82 413.40L1280.82 413.40Q1280.82 399.24 1271.34 390.48Q1261.86 381.72 1246.98 381.72L1246.98 381.72Q1232.10 381.72 1222.50 390.48Q1212.90 399.24 1212.90 413.40L1212.90 413.40Q1212.90 427.56 1222.50 436.32Q1232.10 445.08 1246.98 445.08L1246.98 445.08Z" /><path fill="#FFFFFF" d="M1431.06 351Q1455.06 351 1469.82 365.40Q1484.58 379.80 1484.58 408.12L1484.58 408.12L1484.58 482.04L1447.14 482.04L1447.14 413.88Q1447.14 398.52 1440.42 390.96Q1433.70 383.40 1420.98 383.40L1420.98 383.40Q1406.82 383.40 1398.42 392.16Q1390.02 400.92 1390.02 418.20L1390.02 418.20L1390.02 482.04L1352.58 482.04L1352.58 352.92L1388.34 352.92L1388.34 368.04Q1395.78 359.88 1406.82 355.44Q1417.86 351 1431.06 351L1431.06 351Z" /><path fill="#FFFFFF" d="M1612.02 352.92L1649.46 352.92L1649.46 482.04L1613.70 482.04L1613.70 467.16Q1599.78 483.96 1573.38 483.96L1573.38 483.96Q1555.14 483.96 1540.38 475.80Q1525.62 467.64 1517.22 452.52Q1508.82 437.40 1508.82 417.48L1508.82 417.48Q1508.82 397.56 1517.22 382.44Q1525.62 367.32 1540.38 359.16Q1555.14 351 1573.38 351L1573.38 351Q1598.10 351 1612.02 366.60L1612.02 366.60L1612.02 352.92ZM1579.86 453.24Q1594.02 453.24 1603.38 443.52Q1612.74 433.80 1612.74 417.48L1612.74 417.48Q1612.74 401.16 1603.38 391.44Q1594.02 381.72 1579.86 381.72L1579.86 381.72Q1565.46 381.72 1556.10 391.44Q1546.74 401.16 1546.74 417.48L1546.74 417.48Q1546.74 433.80 1556.10 443.52Q1565.46 453.24 1579.86 453.24L1579.86 453.24Z" /><path fill="#FFFFFF" d="M1746.42 483.96Q1725.78 483.96 1709.34 475.44Q1692.90 466.92 1683.66 451.80Q1674.42 436.68 1674.42 417.48L1674.42 417.48Q1674.42 398.28 1683.66 383.16Q1692.90 368.04 1709.34 359.52Q1725.78 351 1746.42 351L1746.42 351Q1766.82 351 1782.06 359.52Q1797.30 368.04 1804.26 383.88L1804.26 383.88L1775.22 399.48Q1765.14 381.72 1746.18 381.72L1746.18 381.72Q1731.54 381.72 1721.94 391.32Q1712.34 400.92 1712.34 417.48L1712.34 417.48Q1712.34 434.04 1721.94 443.64Q1731.54 453.24 1746.18 453.24L1746.18 453.24Q1765.38 453.24 1775.22 435.48L1775.22 435.48L1804.26 451.32Q1797.30 466.68 1782.06 475.32Q1766.82 483.96 1746.42 483.96L1746.42 483.96Z" /><path fill="#FFFFFF" d="M1825.86 482.04L1825.86 352.92L1863.30 352.92L1863.30 482.04L1825.86 482.04ZM1844.58 334.92Q1834.26 334.92 1827.78 328.92Q1821.30 322.92 1821.30 314.04L1821.30 314.04Q1821.30 305.16 1827.78 299.16Q1834.26 293.16 1844.58 293.16L1844.58 293.16Q1854.90 293.16 1861.38 298.92Q1867.86 304.68 1867.86 313.32L1867.86 313.32Q1867.86 322.68 1861.38 328.80Q1854.90 334.92 1844.58 334.92L1844.58 334.92Z" /><path fill="#FFFFFF" d="M1959.54 483.96Q1939.14 483.96 1922.94 475.44Q1906.74 466.92 1897.62 451.80Q1888.50 436.68 1888.50 417.48L1888.50 417.48Q1888.50 398.28 1897.62 383.16Q1906.74 368.04 1922.94 359.52Q1939.14 351 1959.54 351L1959.54 351Q1979.94 351 1996.02 359.52Q2012.10 368.04 2021.22 383.16Q2030.34 398.28 2030.34 417.48L2030.34 417.48Q2030.34 436.68 2021.22 451.80Q2012.10 466.92 1996.02 475.44Q1979.94 483.96 1959.54 483.96L1959.54 483.96ZM1959.54 453.24Q1973.94 453.24 1983.18 443.52Q1992.42 433.80 1992.42 417.48L1992.42 417.48Q1992.42 401.16 1983.18 391.44Q1973.94 381.72 1959.54 381.72L1959.54 381.72Q1945.14 381.72 1935.78 391.44Q1926.42 401.16 1926.42 417.48L1926.42 417.48Q1926.42 433.80 1935.78 443.52Q1945.14 453.24 1959.54 453.24L1959.54 453.24Z" /><path fill="#FFFFFF" d="M411.54 753L411.54 707.40L447.06 707.40L447.06 794.04L417.78 794.04L417.78 783.96Q400.26 796.92 372.66 796.92L372.66 796.92Q349.38 796.92 329.94 786.84Q310.50 776.76 298.98 757.44Q287.46 738.12 287.46 711.48L287.46 711.48Q287.46 685.80 299.34 665.76Q311.22 645.72 332.34 634.44Q353.46 623.16 379.86 623.16L379.86 623.16Q401.94 623.16 419.94 630.60Q437.94 638.04 450.18 652.20L450.18 652.20L425.22 675.24Q407.22 656.28 381.78 656.28L381.78 656.28Q365.70 656.28 353.22 663.12Q340.74 669.96 333.78 682.44Q326.82 694.92 326.82 711.24L326.82 711.24Q326.82 728.28 333.66 740.28Q340.50 752.28 352.02 758.40Q363.54 764.52 377.22 764.52L377.22 764.52Q397.62 764.52 411.54 753L411.54 753Z" /><path fill="#FFFFFF" d="M541.86 795.96Q521.46 795.96 505.26 787.44Q489.06 778.92 479.94 763.80Q470.82 748.68 470.82 729.48L470.82 729.48Q470.82 710.28 479.94 695.16Q489.06 680.04 505.26 671.52Q521.46 663 541.86 663L541.86 663Q562.26 663 578.34 671.52Q594.42 680.04 603.54 695.16Q612.66 710.28 612.66 729.48L612.66 729.48Q612.66 748.68 603.54 763.80Q594.42 778.92 578.34 787.44Q562.26 795.96 541.86 795.96L541.86 795.96ZM541.86 765.24Q556.26 765.24 565.50 755.52Q574.74 745.80 574.74 729.48L574.74 729.48Q574.74 713.16 565.50 703.44Q556.26 693.72 541.86 693.72L541.86 693.72Q527.46 693.72 518.10 703.44Q508.74 713.16 508.74 729.48L508.74 729.48Q508.74 745.80 518.10 755.52Q527.46 765.24 541.86 765.24L541.86 765.24Z" /><path fill="#FFFFFF" d="M731.70 615.96L769.14 615.96L769.14 794.04L733.38 794.04L733.38 779.16Q719.46 795.96 693.06 795.96L693.06 795.96Q674.82 795.96 660.06 787.80Q645.30 779.64 636.90 764.52Q628.50 749.40 628.50 729.48L628.50 729.48Q628.50 709.56 636.90 694.44Q645.30 679.32 660.06 671.16Q674.82 663 693.06 663L693.06 663Q717.78 663 731.70 678.60L731.70 678.60L731.70 615.96ZM699.54 765.24Q713.70 765.24 723.06 755.52Q732.42 745.80 732.42 729.48L732.42 729.48Q732.42 713.16 723.06 703.44Q713.70 693.72 699.54 693.72L699.54 693.72Q685.14 693.72 675.78 703.44Q666.42 713.16 666.42 729.48L666.42 729.48Q666.42 745.80 675.78 755.52Q685.14 765.24 699.54 765.24L699.54 765.24Z" /><path fill="#FFFFFF" d="M865.14 795.96Q844.74 795.96 828.54 787.44Q812.34 778.92 803.22 763.80Q794.10 748.68 794.10 729.48L794.10 729.48Q794.10 710.28 803.22 695.16Q812.34 680.04 828.54 671.52Q844.74 663 865.14 663L865.14 663Q885.54 663 901.62 671.52Q917.70 680.04 926.82 695.16Q935.94 710.28 935.94 729.48L935.94 729.48Q935.94 748.68 926.82 763.80Q917.70 778.92 901.62 787.44Q885.54 795.96 865.14 795.96L865.14 795.96ZM865.14 765.24Q879.54 765.24 888.78 755.52Q898.02 745.80 898.02 729.48L898.02 729.48Q898.02 713.16 888.78 703.44Q879.54 693.72 865.14 693.72L865.14 693.72Q850.74 693.72 841.38 703.44Q832.02 713.16 832.02 729.48L832.02 729.48Q832.02 745.80 841.38 755.52Q850.74 765.24 865.14 765.24L865.14 765.24Z" /><path fill="#FFFFFF" d="M1053.54 664.92L1090.98 664.92L1090.98 772.44Q1090.98 807.96 1072.98 825.24Q1054.98 842.52 1020.66 842.52L1020.66 842.52Q1002.42 842.52 986.22 837.96Q970.02 833.40 958.98 824.76L958.98 824.76L973.86 797.88Q982.02 804.60 993.78 808.44Q1005.54 812.28 1017.54 812.28L1017.54 812.28Q1036.26 812.28 1044.90 803.64Q1053.54 795 1053.54 777.24L1053.54 777.24L1053.54 772.92Q1046.34 780.12 1036.50 783.96Q1026.66 787.80 1015.38 787.80L1015.38 787.80Q989.94 787.80 975.06 773.28Q960.18 758.76 960.18 729.72L960.18 729.72L960.18 664.92L997.62 664.92L997.62 724.20Q997.62 755.64 1023.78 755.64L1023.78 755.64Q1037.22 755.64 1045.38 746.88Q1053.54 738.12 1053.54 720.84L1053.54 720.84L1053.54 664.92Z" /><path fill="#FFFFFF" d="M1309.86 753L1309.86 707.40L1345.38 707.40L1345.38 794.04L1316.10 794.04L1316.10 783.96Q1298.58 796.92 1270.98 796.92L1270.98 796.92Q1247.70 796.92 1228.26 786.84Q1208.82 776.76 1197.30 757.44Q1185.78 738.12 1185.78 711.48L1185.78 711.48Q1185.78 685.80 1197.66 665.76Q1209.54 645.72 1230.66 634.44Q1251.78 623.16 1278.18 623.16L1278.18 623.16Q1300.26 623.16 1318.26 630.60Q1336.26 638.04 1348.50 652.20L1348.50 652.20L1323.54 675.24Q1305.54 656.28 1280.10 656.28L1280.10 656.28Q1264.02 656.28 1251.54 663.12Q1239.06 669.96 1232.10 682.44Q1225.14 694.92 1225.14 711.24L1225.14 711.24Q1225.14 728.28 1231.98 740.28Q1238.82 752.28 1250.34 758.40Q1261.86 764.52 1275.54 764.52L1275.54 764.52Q1295.94 764.52 1309.86 753L1309.86 753Z" /><path fill="#FFFFFF" d="M1414.50 681.96Q1421.22 672.60 1432.62 667.80Q1444.02 663 1458.90 663L1458.90 663L1458.90 697.56Q1452.66 697.08 1450.50 697.08L1450.50 697.08Q1434.42 697.08 1425.30 706.08Q1416.18 715.08 1416.18 733.08L1416.18 733.08L1416.18 794.04L1378.74 794.04L1378.74 664.92L1414.50 664.92L1414.50 681.96Z" /><path fill="#FFFFFF" d="M1575.78 664.92L1613.22 664.92L1613.22 794.04L1577.46 794.04L1577.46 779.16Q1563.54 795.96 1537.14 795.96L1537.14 795.96Q1518.90 795.96 1504.14 787.80Q1489.38 779.64 1480.98 764.52Q1472.58 749.40 1472.58 729.48L1472.58 729.48Q1472.58 709.56 1480.98 694.44Q1489.38 679.32 1504.14 671.16Q1518.90 663 1537.14 663L1537.14 663Q1561.86 663 1575.78 678.60L1575.78 678.60L1575.78 664.92ZM1543.62 765.24Q1557.78 765.24 1567.14 755.52Q1576.50 745.80 1576.50 729.48L1576.50 729.48Q1576.50 713.16 1567.14 703.44Q1557.78 693.72 1543.62 693.72L1543.62 693.72Q1529.22 693.72 1519.86 703.44Q1510.50 713.16 1510.50 729.48L1510.50 729.48Q1510.50 745.80 1519.86 755.52Q1529.22 765.24 1543.62 765.24L1543.62 765.24Z" /><path fill="#FFFFFF" d="M1726.26 663Q1750.26 663 1765.02 677.40Q1779.78 691.80 1779.78 720.12L1779.78 720.12L1779.78 794.04L1742.34 794.04L1742.34 725.88Q1742.34 710.52 1735.62 702.96Q1728.90 695.40 1716.18 695.40L1716.18 695.40Q1702.02 695.40 1693.62 704.16Q1685.22 712.92 1685.22 730.20L1685.22 730.20L1685.22 794.04L1647.78 794.04L1647.78 664.92L1683.54 664.92L1683.54 680.04Q1690.98 671.88 1702.02 667.44Q1713.06 663 1726.26 663L1726.26 663Z" /><path fill="#FFFFFF" d="M1907.70 615.96L1945.14 615.96L1945.14 794.04L1909.38 794.04L1909.38 779.16Q1895.46 795.96 1869.06 795.96L1869.06 795.96Q1850.82 795.96 1836.06 787.80Q1821.30 779.64 1812.90 764.52Q1804.50 749.40 1804.50 729.48L1804.50 729.48Q1804.50 709.56 1812.90 694.44Q1821.30 679.32 1836.06 671.16Q1850.82 663 1869.06 663L1869.06 663Q1893.78 663 1907.70 678.60L1907.70 678.60L1907.70 615.96ZM1875.54 765.24Q1889.70 765.24 1899.06 755.52Q1908.42 745.80 1908.42 729.48L1908.42 729.48Q1908.42 713.16 1899.06 703.44Q1889.70 693.72 1875.54 693.72L1875.54 693.72Q1861.14 693.72 1851.78 703.44Q1842.42 713.16 1842.42 729.48L1842.42 729.48Q1842.42 745.80 1851.78 755.52Q1861.14 765.24 1875.54 765.24L1875.54 765.24Z" /><path fill="#FFFFFF" d="M2041.14 795.96Q2020.74 795.96 2004.54 787.44Q1988.34 778.92 1979.22 763.80Q1970.10 748.68 1970.10 729.48L1970.10 729.48Q1970.10 710.28 1979.22 695.16Q1988.34 680.04 2004.54 671.52Q2020.74 663 2041.14 663L2041.14 663Q2061.54 663 2077.62 671.52Q2093.70 680.04 2102.82 695.16Q2111.94 710.28 2111.94 729.48L2111.94 729.48Q2111.94 748.68 2102.82 763.80Q2093.70 778.92 2077.62 787.44Q2061.54 795.96 2041.14 795.96L2041.14 795.96ZM2041.14 765.24Q2055.54 765.24 2064.78 755.52Q2074.02 745.80 2074.02 729.48L2074.02 729.48Q2074.02 713.16 2064.78 703.44Q2055.54 693.72 2041.14 693.72L2041.14 693.72Q2026.74 693.72 2017.38 703.44Q2008.02 713.16 2008.02 729.48L2008.02 729.48Q2008.02 745.80 2017.38 755.52Q2026.74 765.24 2041.14 765.24L2041.14 765.24Z" /></g></g><g transform="translate(200 764)" data-asset-index="1"><g clip-path="url(#assetClipPath_Vj-WNjm3)" transform="scale(1 1)" data-asset-index="1"><line x2="100%" y1="4.5" y2="4.5" stroke-width="4" stroke="#EAEAEA" id="DVYYLrUswIFcevMZLNZU4" style="stroke-width:9;vector-effect:non-scaling-stroke;" /></g></g><g transform="translate(257 696)" data-asset-index="-1"><g clip-path="url(#assetClipPath_Ohq24UZI)" transform="scale(1 1)" data-asset-index="-1"><path fill="#FFFFFF" d="M145.78 241.65L127.91 241.65L127.91 154.35L185.33 154.35L185.33 169.17L145.78 169.17L145.78 193.55L181.46 193.55L181.46 208.14L145.78 208.14L145.78 241.65Z" /><path fill="#FFFFFF" d="M215.51 241.65L197.93 241.65L197.93 176.14L214.92 176.14L214.92 187.57L215.63 187.57Q217.44 181.48 221.69 178.37Q225.94 175.27 231.45 175.27L231.45 175.27Q232.79 175.27 234.38 175.41Q235.96 175.56 237.13 175.85L237.13 175.85L237.13 191.55Q235.96 191.14 233.73 190.91Q231.50 190.68 229.51 190.68L229.51 190.68Q225.53 190.68 222.30 192.40Q219.08 194.13 217.29 197.21Q215.51 200.29 215.51 204.39L215.51 204.39L215.51 241.65Z" /><path fill="#FFFFFF" d="M276.09 242.94L276.09 242.94Q266.25 242.94 259.04 238.69Q251.84 234.45 247.94 226.86Q244.04 219.27 244.04 209.19L244.04 209.19Q244.04 199.00 247.94 191.41Q251.84 183.82 259.04 179.57Q266.25 175.32 276.09 175.32L276.09 175.32Q286.00 175.32 293.17 179.57Q300.35 183.82 304.25 191.41Q308.14 199.00 308.14 209.19L308.14 209.19Q308.14 219.27 304.25 226.86Q300.35 234.45 293.17 238.69Q286.00 242.94 276.09 242.94ZM276.09 229.11L276.09 229.11Q280.78 229.11 283.95 226.51Q287.11 223.90 288.69 219.36Q290.27 214.82 290.27 209.13L290.27 209.13Q290.27 203.33 288.69 198.82Q287.11 194.31 283.95 191.73Q280.78 189.15 276.09 189.15L276.09 189.15Q271.41 189.15 268.27 191.73Q265.14 194.31 263.55 198.82Q261.97 203.33 261.97 209.13L261.97 209.13Q261.97 214.82 263.55 219.36Q265.14 223.90 268.27 226.51Q271.41 229.11 276.09 229.11Z" /><path fill="#FFFFFF" d="M337.97 203.74L337.97 203.74L337.97 241.65L320.39 241.65L320.39 176.14L336.97 176.14L337.27 192.49L336.21 192.49Q338.79 184.29 344.03 179.81Q349.28 175.32 357.60 175.32L357.60 175.32Q364.39 175.32 369.46 178.28Q374.53 181.24 377.31 186.78Q380.10 192.32 380.10 199.99L380.10 199.99L380.10 241.65L362.52 241.65L362.52 203.04Q362.52 196.95 359.38 193.49Q356.25 190.03 350.68 190.03L350.68 190.03Q346.99 190.03 344.09 191.64Q341.19 193.25 339.58 196.30Q337.97 199.35 337.97 203.74Z" /><path fill="#FFFFFF" d="M388.77 176.14L427.62 176.14L427.62 189.56L388.77 189.56L388.77 176.14ZM397.79 224.02L397.79 160.56L415.37 160.56L415.37 222.49Q415.37 225.60 416.75 227.09Q418.13 228.59 421.35 228.59L421.35 228.59Q422.34 228.59 424.16 228.32Q425.98 228.06 426.91 227.82L426.91 227.82L429.43 241.01Q426.50 241.89 423.60 242.24Q420.70 242.59 418.07 242.59L418.07 242.59Q408.22 242.59 403.01 237.79Q397.79 232.98 397.79 224.02L397.79 224.02Z" /><path fill="#FFFFFF" d="M468.63 242.94L468.63 242.94Q458.61 242.94 451.35 238.84Q444.08 234.74 440.19 227.18Q436.29 219.62 436.29 209.25L436.29 209.25Q436.29 199.11 440.16 191.50Q444.02 183.88 451.11 179.60Q458.20 175.32 467.75 175.32L467.75 175.32Q474.20 175.32 479.77 177.38Q485.33 179.43 489.55 183.56Q493.77 187.69 496.14 193.90Q498.52 200.11 498.52 208.55L498.52 208.55L498.52 213.47L443.50 213.47L443.50 202.45L489.90 202.45L481.70 205.38Q481.70 200.29 480.15 196.51Q478.59 192.73 475.52 190.65Q472.44 188.57 467.93 188.57L467.93 188.57Q463.36 188.57 460.17 190.68Q456.97 192.79 455.33 196.39Q453.69 199.99 453.69 204.62L453.69 204.62L453.69 212.41Q453.69 218.10 455.60 221.96Q457.50 225.83 460.93 227.77Q464.36 229.70 468.93 229.70L468.93 229.70Q472.03 229.70 474.55 228.82Q477.07 227.94 478.86 226.21Q480.64 224.48 481.58 221.96L481.58 221.96L497.52 224.95Q495.94 230.34 492.01 234.42Q488.09 238.49 482.20 240.71Q476.31 242.94 468.63 242.94Z" /><path fill="#FFFFFF" d="M528.11 203.74L528.11 203.74L528.11 241.65L510.53 241.65L510.53 176.14L527.11 176.14L527.40 192.49L526.35 192.49Q528.93 184.29 534.17 179.81Q539.41 175.32 547.73 175.32L547.73 175.32Q554.53 175.32 559.60 178.28Q564.67 181.24 567.45 186.78Q570.23 192.32 570.23 199.99L570.23 199.99L570.23 241.65L552.66 241.65L552.66 203.04Q552.66 196.95 549.52 193.49Q546.39 190.03 540.82 190.03L540.82 190.03Q537.13 190.03 534.23 191.64Q531.33 193.25 529.72 196.30Q528.11 199.35 528.11 203.74Z" /><path fill="#FFFFFF" d="M609.14 242.77L609.14 242.77Q601.64 242.77 595.58 238.87Q589.51 234.97 586.00 227.44Q582.48 219.91 582.48 209.02L582.48 209.02Q582.48 197.82 586.11 190.32Q589.75 182.82 595.78 179.07Q601.82 175.32 609.08 175.32L609.08 175.32Q614.65 175.32 618.34 177.20Q622.03 179.07 624.32 181.83Q626.60 184.58 627.71 187.16L627.71 187.16L628.30 187.16L628.30 154.35L645.88 154.35L645.88 241.65L628.59 241.65L628.59 231.16L627.71 231.16Q626.54 233.80 624.23 236.47Q621.91 239.13 618.22 240.95Q614.53 242.77 609.14 242.77ZM614.59 228.64L614.59 228.64Q619.04 228.64 622.21 226.18Q625.37 223.72 627.01 219.30Q628.65 214.88 628.65 208.96L628.65 208.96Q628.65 202.98 627.04 198.62Q625.43 194.25 622.27 191.82Q619.10 189.39 614.59 189.39L614.59 189.39Q609.96 189.39 606.83 191.91Q603.69 194.43 602.11 198.82Q600.53 203.21 600.53 208.96L600.53 208.96Q600.53 214.70 602.14 219.15Q603.75 223.61 606.88 226.13Q610.02 228.64 614.59 228.64Z" /><path fill="#FFFFFF" d="M720.41 241.65L720.41 241.65L697.79 241.65L697.79 226.24L719.53 226.24Q727.97 226.24 733.68 223.25Q739.39 220.27 742.27 214.00Q745.14 207.73 745.14 197.94L745.14 197.94Q745.14 188.21 742.24 181.97Q739.34 175.73 733.68 172.75Q728.03 169.76 719.65 169.76L719.65 169.76L697.38 169.76L697.38 154.35L720.70 154.35Q733.83 154.35 743.29 159.59Q752.75 164.84 757.85 174.59Q762.95 184.35 762.95 197.94L762.95 197.94Q762.95 211.59 757.85 221.38Q752.75 231.16 743.23 236.41Q733.71 241.65 720.41 241.65ZM689.71 154.35L707.58 154.35L707.58 241.65L689.71 241.65L689.71 154.35Z" /><path fill="#FFFFFF" d="M805.55 242.94L805.55 242.94Q795.53 242.94 788.26 238.84Q781.00 234.74 777.10 227.18Q773.20 219.62 773.20 209.25L773.20 209.25Q773.20 199.11 777.07 191.50Q780.94 183.88 788.03 179.60Q795.12 175.32 804.67 175.32L804.67 175.32Q811.11 175.32 816.68 177.38Q822.25 179.43 826.46 183.56Q830.68 187.69 833.06 193.90Q835.43 200.11 835.43 208.55L835.43 208.55L835.43 213.47L780.41 213.47L780.41 202.45L826.82 202.45L818.61 205.38Q818.61 200.29 817.06 196.51Q815.51 192.73 812.43 190.65Q809.36 188.57 804.84 188.57L804.84 188.57Q800.27 188.57 797.08 190.68Q793.89 192.79 792.25 196.39Q790.61 199.99 790.61 204.62L790.61 204.62L790.61 212.41Q790.61 218.10 792.51 221.96Q794.41 225.83 797.84 227.77Q801.27 229.70 805.84 229.70L805.84 229.70Q808.95 229.70 811.46 228.82Q813.98 227.94 815.77 226.21Q817.56 224.48 818.50 221.96L818.50 221.96L834.43 224.95Q832.85 230.34 828.93 234.42Q825 238.49 819.11 240.71Q813.22 242.94 805.55 242.94Z" /><path fill="#FFFFFF" d="M885.88 241.65L865.90 241.65L841.76 176.14L860.45 176.14L871.46 210.13Q873.46 216.52 874.95 223.02Q876.45 229.52 878.03 236.50L878.03 236.50L874.28 236.50Q875.80 229.52 877.27 223.02Q878.73 216.52 880.72 210.13L880.72 210.13L891.62 176.14L910.08 176.14L885.88 241.65Z" /><path fill="#FFFFFF" d="M948.98 242.94L948.98 242.94Q938.96 242.94 931.70 238.84Q924.43 234.74 920.54 227.18Q916.64 219.62 916.64 209.25L916.64 209.25Q916.64 199.11 920.51 191.50Q924.38 183.88 931.46 179.60Q938.55 175.32 948.11 175.32L948.11 175.32Q954.55 175.32 960.12 177.38Q965.68 179.43 969.90 183.56Q974.12 187.69 976.49 193.90Q978.87 200.11 978.87 208.55L978.87 208.55L978.87 213.47L923.85 213.47L923.85 202.45L970.25 202.45L962.05 205.38Q962.05 200.29 960.50 196.51Q958.95 192.73 955.87 190.65Q952.79 188.57 948.28 188.57L948.28 188.57Q943.71 188.57 940.52 190.68Q937.32 192.79 935.68 196.39Q934.04 199.99 934.04 204.62L934.04 204.62L934.04 212.41Q934.04 218.10 935.95 221.96Q937.85 225.83 941.28 227.77Q944.71 229.70 949.28 229.70L949.28 229.70Q952.38 229.70 954.90 228.82Q957.42 227.94 959.21 226.21Q961.00 224.48 961.93 221.96L961.93 221.96L977.87 224.95Q976.29 230.34 972.36 234.42Q968.44 238.49 962.55 240.71Q956.66 242.94 948.98 242.94Z" /><path fill="#FFFFFF" d="M990.88 154.35L1008.46 154.35L1008.46 241.65L990.88 241.65L990.88 154.35Z" /><path fill="#FFFFFF" d="M1052.70 242.94L1052.70 242.94Q1042.85 242.94 1035.64 238.69Q1028.44 234.45 1024.54 226.86Q1020.64 219.27 1020.64 209.19L1020.64 209.19Q1020.64 199.00 1024.54 191.41Q1028.44 183.82 1035.64 179.57Q1042.85 175.32 1052.70 175.32L1052.70 175.32Q1062.60 175.32 1069.78 179.57Q1076.95 183.82 1080.85 191.41Q1084.75 199.00 1084.75 209.19L1084.75 209.19Q1084.75 219.27 1080.85 226.86Q1076.95 234.45 1069.78 238.69Q1062.60 242.94 1052.70 242.94ZM1052.70 229.11L1052.70 229.11Q1057.38 229.11 1060.55 226.51Q1063.71 223.90 1065.29 219.36Q1066.88 214.82 1066.88 209.13L1066.88 209.13Q1066.88 203.33 1065.29 198.82Q1063.71 194.31 1060.55 191.73Q1057.38 189.15 1052.70 189.15L1052.70 189.15Q1048.01 189.15 1044.87 191.73Q1041.74 194.31 1040.16 198.82Q1038.57 203.33 1038.57 209.13L1038.57 209.13Q1038.57 214.82 1040.16 219.36Q1041.74 223.90 1044.87 226.51Q1048.01 229.11 1052.70 229.11Z" /><path fill="#FFFFFF" d="M1114.57 266.14L1096.99 266.14L1096.99 176.14L1114.28 176.14L1114.28 187.16L1115.10 187.16Q1116.33 184.58 1118.58 181.83Q1120.84 179.07 1124.53 177.20Q1128.22 175.32 1133.79 175.32L1133.79 175.32Q1141.05 175.32 1147.09 179.07Q1153.13 182.82 1156.73 190.32Q1160.33 197.82 1160.33 209.02L1160.33 209.02Q1160.33 219.91 1156.82 227.44Q1153.30 234.97 1147.27 238.87Q1141.23 242.77 1133.67 242.77L1133.67 242.77Q1128.34 242.77 1124.65 240.95Q1120.96 239.13 1118.64 236.47Q1116.33 233.80 1115.10 231.16L1115.10 231.16L1114.57 231.16L1114.57 266.14ZM1128.28 228.64L1128.28 228.64Q1132.85 228.64 1135.99 226.13Q1139.12 223.61 1140.73 219.15Q1142.34 214.70 1142.34 208.96L1142.34 208.96Q1142.34 203.21 1140.73 198.82Q1139.12 194.43 1136.02 191.91Q1132.91 189.39 1128.28 189.39L1128.28 189.39Q1123.77 189.39 1120.61 191.82Q1117.44 194.25 1115.80 198.62Q1114.16 202.98 1114.16 208.96L1114.16 208.96Q1114.16 214.88 1115.83 219.30Q1117.50 223.72 1120.66 226.18Q1123.83 228.64 1128.28 228.64Z" /><path fill="#FFFFFF" d="M1202.23 242.94L1202.23 242.94Q1192.21 242.94 1184.94 238.84Q1177.68 234.74 1173.78 227.18Q1169.88 219.62 1169.88 209.25L1169.88 209.25Q1169.88 199.11 1173.75 191.50Q1177.62 183.88 1184.71 179.60Q1191.80 175.32 1201.35 175.32L1201.35 175.32Q1207.79 175.32 1213.36 177.38Q1218.93 179.43 1223.14 183.56Q1227.36 187.69 1229.74 193.90Q1232.11 200.11 1232.11 208.55L1232.11 208.55L1232.11 213.47L1177.09 213.47L1177.09 202.45L1223.50 202.45L1215.29 205.38Q1215.29 200.29 1213.74 196.51Q1212.19 192.73 1209.11 190.65Q1206.04 188.57 1201.52 188.57L1201.52 188.57Q1196.95 188.57 1193.76 190.68Q1190.57 192.79 1188.93 196.39Q1187.29 199.99 1187.29 204.62L1187.29 204.62L1187.29 212.41Q1187.29 218.10 1189.19 221.96Q1191.09 225.83 1194.52 227.77Q1197.95 229.70 1202.52 229.70L1202.52 229.70Q1205.63 229.70 1208.14 228.82Q1210.66 227.94 1212.45 226.21Q1214.24 224.48 1215.18 221.96L1215.18 221.96L1231.11 224.95Q1229.53 230.34 1225.61 234.42Q1221.68 238.49 1215.79 240.71Q1209.90 242.94 1202.23 242.94Z" /><path fill="#FFFFFF" d="M1261.70 241.65L1244.12 241.65L1244.12 176.14L1261.11 176.14L1261.11 187.57L1261.82 187.57Q1263.63 181.48 1267.88 178.37Q1272.13 175.27 1277.64 175.27L1277.64 175.27Q1278.98 175.27 1280.57 175.41Q1282.15 175.56 1283.32 175.85L1283.32 175.85L1283.32 191.55Q1282.15 191.14 1279.92 190.91Q1277.70 190.68 1275.70 190.68L1275.70 190.68Q1271.72 190.68 1268.50 192.40Q1265.27 194.13 1263.49 197.21Q1261.70 200.29 1261.70 204.39L1261.70 204.39L1261.70 241.65Z" /></g></g></svg>