<svg xmlns="http://www.w3.org/2000/svg" xmlns:xlink="http://www.w3.org/1999/xlink" width="325" zoomAndPan="magnify" viewBox="0 0 243.75 116.249996" height="155" preserveAspectRatio="xMidYMid meet" version="1.0"><defs><g/></defs><g fill="#ffffff" fill-opacity="1"><g transform="translate(28.156519, 37.072227)"><g><path d="M 12.875 -25.359375 L 12.875 -7.15625 C 12.875 -4.675781 12.191406 -2.785156 10.828125 -1.484375 C 9.472656 -0.179688 7.523438 0.46875 4.984375 0.46875 C 4.304688 0.46875 3.640625 0.382812 2.984375 0.21875 C 2.328125 0.0507812 1.769531 -0.144531 1.3125 -0.375 C 0.863281 -0.613281 0.457031 -0.851562 0.09375 -1.09375 C -0.257812 -1.34375 -0.515625 -1.550781 -0.671875 -1.71875 L -0.953125 -1.96875 L 0.890625 -6.796875 C 2.097656 -5.648438 3.195312 -5.078125 4.1875 -5.078125 C 5.0625 -5.078125 5.765625 -5.367188 6.296875 -5.953125 C 6.828125 -6.535156 7.09375 -7.429688 7.09375 -8.640625 L 7.09375 -25.359375 Z M 12.875 -25.359375 "/></g></g></g><g fill="#ffffff" fill-opacity="1"><g transform="translate(41.338423, 37.072227)"><g><path d="M 6.984375 -15.765625 L 6.984375 -8.265625 C 6.984375 -6.710938 7.21875 -5.609375 7.6875 -4.953125 C 8.15625 -4.296875 8.953125 -3.96875 10.078125 -3.96875 C 11.203125 -3.96875 12 -4.296875 12.46875 -4.953125 C 12.945312 -5.609375 13.1875 -6.710938 13.1875 -8.265625 L 13.1875 -15.765625 L 18.625 -15.765625 L 18.625 -6.953125 C 18.625 -4.328125 17.941406 -2.429688 16.578125 -1.265625 C 15.210938 -0.109375 13.046875 0.46875 10.078125 0.46875 C 7.109375 0.46875 4.941406 -0.109375 3.578125 -1.265625 C 2.210938 -2.429688 1.53125 -4.328125 1.53125 -6.953125 L 1.53125 -15.765625 Z M 6.984375 -15.765625 "/></g></g></g><g fill="#ffffff" fill-opacity="1"><g transform="translate(60.266401, 37.072227)"><g><path d="M 2.90625 -1.9375 C 1.4375 -3.550781 0.703125 -5.523438 0.703125 -7.859375 C 0.703125 -10.203125 1.4375 -12.179688 2.90625 -13.796875 C 4.382812 -15.421875 6.265625 -16.234375 8.546875 -16.234375 C 10.628906 -16.234375 12.347656 -15.578125 13.703125 -14.265625 L 13.703125 -15.765625 L 19.140625 -15.765625 L 19.140625 0 L 13.765625 0 L 13.765625 -1.78125 L 13.703125 -1.78125 C 12.347656 -0.28125 10.628906 0.46875 8.546875 0.46875 C 6.265625 0.46875 4.382812 -0.332031 2.90625 -1.9375 Z M 7.546875 -10.546875 C 6.835938 -9.847656 6.484375 -8.953125 6.484375 -7.859375 C 6.484375 -6.773438 6.820312 -5.890625 7.5 -5.203125 C 8.175781 -4.523438 9.066406 -4.1875 10.171875 -4.1875 C 11.234375 -4.1875 12.109375 -4.53125 12.796875 -5.21875 C 13.484375 -5.914062 13.828125 -6.800781 13.828125 -7.875 C 13.828125 -8.957031 13.472656 -9.847656 12.765625 -10.546875 C 12.054688 -11.242188 11.191406 -11.59375 10.171875 -11.59375 C 9.128906 -11.59375 8.253906 -11.242188 7.546875 -10.546875 Z M 7.546875 -10.546875 "/></g></g></g><g fill="#ffffff" fill-opacity="1"><g transform="translate(80.024019, 37.072227)"><g><path d="M 1.84375 0 L 1.84375 -15.765625 L 7.28125 -15.765625 L 7.28125 -14.109375 L 7.34375 -14.109375 C 8.757812 -15.523438 10.265625 -16.234375 11.859375 -16.234375 C 12.640625 -16.234375 13.414062 -16.128906 14.1875 -15.921875 C 14.957031 -15.710938 15.691406 -15.394531 16.390625 -14.96875 C 17.097656 -14.539062 17.671875 -13.929688 18.109375 -13.140625 C 18.554688 -12.347656 18.78125 -11.429688 18.78125 -10.390625 L 18.78125 0 L 13.34375 0 L 13.34375 -8.90625 C 13.34375 -9.726562 13.078125 -10.445312 12.546875 -11.0625 C 12.023438 -11.675781 11.347656 -11.984375 10.515625 -11.984375 C 9.691406 -11.984375 8.945312 -11.664062 8.28125 -11.03125 C 7.613281 -10.394531 7.28125 -9.6875 7.28125 -8.90625 L 7.28125 0 Z M 1.84375 0 "/></g></g></g><g fill="#ffffff" fill-opacity="1"><g transform="translate(99.10563, 37.072227)"><g/></g></g><g fill="#ffffff" fill-opacity="1"><g transform="translate(106.264927, 37.072227)"><g><path d="M 7.625 -25.359375 L 7.625 0 L 1.84375 0 L 1.84375 -25.359375 Z M 7.625 -25.359375 "/></g></g></g><g fill="#ffffff" fill-opacity="1"><g transform="translate(114.49969, 37.072227)"><g><path d="M 1.140625 3.875 L 5.59375 1.6875 C 6.414062 3.039062 7.835938 3.71875 9.859375 3.71875 C 10.804688 3.71875 11.679688 3.414062 12.484375 2.8125 C 13.296875 2.207031 13.703125 1.28125 13.703125 0.03125 L 13.703125 -1.140625 C 12.742188 -0.0664062 11.023438 0.46875 8.546875 0.46875 C 6.265625 0.46875 4.382812 -0.332031 2.90625 -1.9375 C 1.4375 -3.550781 0.703125 -5.523438 0.703125 -7.859375 C 0.703125 -10.203125 1.4375 -12.179688 2.90625 -13.796875 C 4.382812 -15.421875 6.265625 -16.234375 8.546875 -16.234375 C 10.578125 -16.234375 12.265625 -15.609375 13.609375 -14.359375 L 13.703125 -14.359375 L 13.703125 -15.765625 L 19.140625 -15.765625 L 19.140625 0.4375 C 19.140625 2.988281 18.289062 4.960938 16.59375 6.359375 C 14.894531 7.753906 12.648438 8.453125 9.859375 8.453125 C 5.359375 8.453125 2.453125 6.925781 1.140625 3.875 Z M 7.546875 -10.546875 C 6.835938 -9.847656 6.484375 -8.953125 6.484375 -7.859375 C 6.484375 -6.773438 6.820312 -5.890625 7.5 -5.203125 C 8.175781 -4.523438 9.066406 -4.1875 10.171875 -4.1875 C 11.234375 -4.1875 12.109375 -4.53125 12.796875 -5.21875 C 13.484375 -5.914062 13.828125 -6.800781 13.828125 -7.875 C 13.828125 -8.957031 13.472656 -9.847656 12.765625 -10.546875 C 12.054688 -11.242188 11.191406 -11.59375 10.171875 -11.59375 C 9.128906 -11.59375 8.253906 -11.242188 7.546875 -10.546875 Z M 7.546875 -10.546875 "/></g></g></g><g fill="#ffffff" fill-opacity="1"><g transform="translate(134.257314, 37.072227)"><g><path d="M 1.84375 0 L 1.84375 -15.765625 L 7.28125 -15.765625 L 7.28125 -14.109375 L 7.34375 -14.109375 C 8.757812 -15.523438 10.265625 -16.234375 11.859375 -16.234375 C 12.640625 -16.234375 13.414062 -16.128906 14.1875 -15.921875 C 14.957031 -15.710938 15.691406 -15.394531 16.390625 -14.96875 C 17.097656 -14.539062 17.671875 -13.929688 18.109375 -13.140625 C 18.554688 -12.347656 18.78125 -11.429688 18.78125 -10.390625 L 18.78125 0 L 13.34375 0 L 13.34375 -8.90625 C 13.34375 -9.726562 13.078125 -10.445312 12.546875 -11.0625 C 12.023438 -11.675781 11.347656 -11.984375 10.515625 -11.984375 C 9.691406 -11.984375 8.945312 -11.664062 8.28125 -11.03125 C 7.613281 -10.394531 7.28125 -9.6875 7.28125 -8.90625 L 7.28125 0 Z M 1.84375 0 "/></g></g></g><g fill="#ffffff" fill-opacity="1"><g transform="translate(153.338925, 37.072227)"><g><path d="M 2.90625 -1.9375 C 1.4375 -3.550781 0.703125 -5.523438 0.703125 -7.859375 C 0.703125 -10.203125 1.4375 -12.179688 2.90625 -13.796875 C 4.382812 -15.421875 6.265625 -16.234375 8.546875 -16.234375 C 10.628906 -16.234375 12.347656 -15.578125 13.703125 -14.265625 L 13.703125 -15.765625 L 19.140625 -15.765625 L 19.140625 0 L 13.765625 0 L 13.765625 -1.78125 L 13.703125 -1.78125 C 12.347656 -0.28125 10.628906 0.46875 8.546875 0.46875 C 6.265625 0.46875 4.382812 -0.332031 2.90625 -1.9375 Z M 7.546875 -10.546875 C 6.835938 -9.847656 6.484375 -8.953125 6.484375 -7.859375 C 6.484375 -6.773438 6.820312 -5.890625 7.5 -5.203125 C 8.175781 -4.523438 9.066406 -4.1875 10.171875 -4.1875 C 11.234375 -4.1875 12.109375 -4.53125 12.796875 -5.21875 C 13.484375 -5.914062 13.828125 -6.800781 13.828125 -7.875 C 13.828125 -8.957031 13.472656 -9.847656 12.765625 -10.546875 C 12.054688 -11.242188 11.191406 -11.59375 10.171875 -11.59375 C 9.128906 -11.59375 8.253906 -11.242188 7.546875 -10.546875 Z M 7.546875 -10.546875 "/></g></g></g><g fill="#ffffff" fill-opacity="1"><g transform="translate(173.096549, 37.072227)"><g><path d="M 10.234375 -11.765625 C 9.210938 -11.765625 8.332031 -11.382812 7.59375 -10.625 C 6.851562 -9.875 6.484375 -8.96875 6.484375 -7.90625 C 6.484375 -6.8125 6.851562 -5.882812 7.59375 -5.125 C 8.332031 -4.375 9.210938 -4 10.234375 -4 C 10.722656 -4 11.1875 -4.054688 11.625 -4.171875 C 12.070312 -4.296875 12.394531 -4.421875 12.59375 -4.546875 L 12.875 -4.734375 L 14.71875 -0.953125 C 14.570312 -0.847656 14.367188 -0.71875 14.109375 -0.5625 C 13.859375 -0.414062 13.273438 -0.207031 12.359375 0.0625 C 11.453125 0.332031 10.476562 0.46875 9.4375 0.46875 C 7.125 0.46875 5.085938 -0.34375 3.328125 -1.96875 C 1.578125 -3.601562 0.703125 -5.5625 0.703125 -7.84375 C 0.703125 -10.132812 1.578125 -12.101562 3.328125 -13.75 C 5.085938 -15.40625 7.125 -16.234375 9.4375 -16.234375 C 10.476562 -16.234375 11.4375 -16.109375 12.3125 -15.859375 C 13.195312 -15.609375 13.828125 -15.363281 14.203125 -15.125 L 14.71875 -14.75 L 12.875 -11.03125 C 12.195312 -11.519531 11.316406 -11.765625 10.234375 -11.765625 Z M 10.234375 -11.765625 "/></g></g></g><g fill="#ffffff" fill-opacity="1"><g transform="translate(186.954469, 37.072227)"><g><path d="M 2.359375 -24.5625 C 2.992188 -25.195312 3.753906 -25.515625 4.640625 -25.515625 C 5.523438 -25.515625 6.285156 -25.195312 6.921875 -24.5625 C 7.554688 -23.925781 7.875 -23.164062 7.875 -22.28125 C 7.875 -21.394531 7.554688 -20.632812 6.921875 -20 C 6.285156 -19.375 5.523438 -19.0625 4.640625 -19.0625 C 3.753906 -19.0625 2.992188 -19.375 2.359375 -20 C 1.722656 -20.632812 1.40625 -21.394531 1.40625 -22.28125 C 1.40625 -23.164062 1.722656 -23.925781 2.359375 -24.5625 Z M 1.84375 -15.765625 L 1.84375 0 L 7.28125 0 L 7.28125 -15.765625 Z M 1.84375 -15.765625 "/></g></g></g><g fill="#ffffff" fill-opacity="1"><g transform="translate(195.004867, 37.072227)"><g><path d="M 3.328125 -1.859375 C 1.578125 -3.421875 0.703125 -5.421875 0.703125 -7.859375 C 0.703125 -10.304688 1.613281 -12.3125 3.4375 -13.875 C 5.257812 -15.445312 7.515625 -16.234375 10.203125 -16.234375 C 12.847656 -16.234375 15.078125 -15.441406 16.890625 -13.859375 C 18.703125 -12.285156 19.609375 -10.285156 19.609375 -7.859375 C 19.609375 -5.441406 18.722656 -3.445312 16.953125 -1.875 C 15.179688 -0.3125 12.929688 0.46875 10.203125 0.46875 C 7.378906 0.46875 5.085938 -0.304688 3.328125 -1.859375 Z M 7.546875 -10.546875 C 6.835938 -9.847656 6.484375 -8.953125 6.484375 -7.859375 C 6.484375 -6.773438 6.820312 -5.890625 7.5 -5.203125 C 8.175781 -4.523438 9.066406 -4.1875 10.171875 -4.1875 C 11.234375 -4.1875 12.109375 -4.53125 12.796875 -5.21875 C 13.484375 -5.914062 13.828125 -6.800781 13.828125 -7.875 C 13.828125 -8.957031 13.472656 -9.847656 12.765625 -10.546875 C 12.054688 -11.242188 11.191406 -11.59375 10.171875 -11.59375 C 9.128906 -11.59375 8.253906 -11.242188 7.546875 -10.546875 Z M 7.546875 -10.546875 "/></g></g></g><g fill="#ffffff" fill-opacity="1"><g transform="translate(4.28234, 72.188884)"><g><path d="M 24.765625 -14.203125 L 24.765625 -8.703125 C 24.109375 -5.691406 22.675781 -3.410156 20.46875 -1.859375 C 18.257812 -0.304688 15.789062 0.46875 13.0625 0.46875 C 9.632812 0.46875 6.71875 -0.8125 4.3125 -3.375 C 1.90625 -5.9375 0.703125 -9.03125 0.703125 -12.65625 C 0.703125 -16.34375 1.878906 -19.457031 4.234375 -22 C 6.597656 -24.539062 9.539062 -25.8125 13.0625 -25.8125 C 17.175781 -25.8125 20.429688 -24.367188 22.828125 -21.484375 L 19.0625 -17.328125 C 17.707031 -19.503906 15.820312 -20.59375 13.40625 -20.59375 C 11.613281 -20.59375 10.085938 -19.816406 8.828125 -18.265625 C 7.578125 -16.722656 6.953125 -14.851562 6.953125 -12.65625 C 6.953125 -10.507812 7.578125 -8.671875 8.828125 -7.140625 C 10.085938 -5.617188 11.613281 -4.859375 13.40625 -4.859375 C 14.875 -4.859375 16.15625 -5.300781 17.25 -6.1875 C 18.351562 -7.082031 18.90625 -8.269531 18.90625 -9.75 L 13.0625 -9.75 L 13.0625 -14.203125 Z M 24.765625 -14.203125 "/></g></g></g><g fill="#ffffff" fill-opacity="1"><g transform="translate(29.448205, 72.188884)"><g><path d="M 3.328125 -1.859375 C 1.578125 -3.421875 0.703125 -5.421875 0.703125 -7.859375 C 0.703125 -10.304688 1.613281 -12.3125 3.4375 -13.875 C 5.257812 -15.445312 7.515625 -16.234375 10.203125 -16.234375 C 12.847656 -16.234375 15.078125 -15.441406 16.890625 -13.859375 C 18.703125 -12.285156 19.609375 -10.285156 19.609375 -7.859375 C 19.609375 -5.441406 18.722656 -3.445312 16.953125 -1.875 C 15.179688 -0.3125 12.929688 0.46875 10.203125 0.46875 C 7.378906 0.46875 5.085938 -0.304688 3.328125 -1.859375 Z M 7.546875 -10.546875 C 6.835938 -9.847656 6.484375 -8.953125 6.484375 -7.859375 C 6.484375 -6.773438 6.820312 -5.890625 7.5 -5.203125 C 8.175781 -4.523438 9.066406 -4.1875 10.171875 -4.1875 C 11.234375 -4.1875 12.109375 -4.53125 12.796875 -5.21875 C 13.484375 -5.914062 13.828125 -6.800781 13.828125 -7.875 C 13.828125 -8.957031 13.472656 -9.847656 12.765625 -10.546875 C 12.054688 -11.242188 11.191406 -11.59375 10.171875 -11.59375 C 9.128906 -11.59375 8.253906 -11.242188 7.546875 -10.546875 Z M 7.546875 -10.546875 "/></g></g></g><g fill="#ffffff" fill-opacity="1"><g transform="translate(49.451826, 72.188884)"><g><path d="M 2.90625 -1.9375 C 1.4375 -3.550781 0.703125 -5.523438 0.703125 -7.859375 C 0.703125 -10.203125 1.4375 -12.179688 2.90625 -13.796875 C 4.382812 -15.421875 6.265625 -16.234375 8.546875 -16.234375 C 10.628906 -16.234375 12.347656 -15.578125 13.703125 -14.265625 L 13.703125 -26.4375 L 19.140625 -26.4375 L 19.140625 0 L 13.765625 0 L 13.765625 -1.78125 L 13.703125 -1.78125 C 12.347656 -0.28125 10.628906 0.46875 8.546875 0.46875 C 6.265625 0.46875 4.382812 -0.332031 2.90625 -1.9375 Z M 7.546875 -10.546875 C 6.835938 -9.847656 6.484375 -8.953125 6.484375 -7.859375 C 6.484375 -6.773438 6.820312 -5.890625 7.5 -5.203125 C 8.175781 -4.523438 9.066406 -4.1875 10.171875 -4.1875 C 11.234375 -4.1875 12.109375 -4.53125 12.796875 -5.21875 C 13.484375 -5.914062 13.828125 -6.800781 13.828125 -7.875 C 13.828125 -8.957031 13.472656 -9.847656 12.765625 -10.546875 C 12.054688 -11.242188 11.191406 -11.59375 10.171875 -11.59375 C 9.128906 -11.59375 8.253906 -11.242188 7.546875 -10.546875 Z M 7.546875 -10.546875 "/></g></g></g><g fill="#ffffff" fill-opacity="1"><g transform="translate(70.131457, 72.188884)"><g><path d="M 3.328125 -1.859375 C 1.578125 -3.421875 0.703125 -5.421875 0.703125 -7.859375 C 0.703125 -10.304688 1.613281 -12.3125 3.4375 -13.875 C 5.257812 -15.445312 7.515625 -16.234375 10.203125 -16.234375 C 12.847656 -16.234375 15.078125 -15.441406 16.890625 -13.859375 C 18.703125 -12.285156 19.609375 -10.285156 19.609375 -7.859375 C 19.609375 -5.441406 18.722656 -3.445312 16.953125 -1.875 C 15.179688 -0.3125 12.929688 0.46875 10.203125 0.46875 C 7.378906 0.46875 5.085938 -0.304688 3.328125 -1.859375 Z M 7.546875 -10.546875 C 6.835938 -9.847656 6.484375 -8.953125 6.484375 -7.859375 C 6.484375 -6.773438 6.820312 -5.890625 7.5 -5.203125 C 8.175781 -4.523438 9.066406 -4.1875 10.171875 -4.1875 C 11.234375 -4.1875 12.109375 -4.53125 12.796875 -5.21875 C 13.484375 -5.914062 13.828125 -6.800781 13.828125 -7.875 C 13.828125 -8.957031 13.472656 -9.847656 12.765625 -10.546875 C 12.054688 -11.242188 11.191406 -11.59375 10.171875 -11.59375 C 9.128906 -11.59375 8.253906 -11.242188 7.546875 -10.546875 Z M 7.546875 -10.546875 "/></g></g></g><g fill="#ffffff" fill-opacity="1"><g transform="translate(90.135075, 72.188884)"><g><path d="M 13.796875 -15.765625 L 20.0625 -15.765625 L 7.6875 7.984375 L 1.40625 7.984375 L 6.859375 -2.453125 L -0.609375 -15.765625 L 5.65625 -15.765625 L 10.046875 -7.6875 Z M 13.796875 -15.765625 "/></g></g></g><g fill="#ffffff" fill-opacity="1"><g transform="translate(109.278332, 72.188884)"><g/></g></g><g fill="#ffffff" fill-opacity="1"><g transform="translate(117.359636, 72.188884)"><g><path d="M 24.765625 -14.203125 L 24.765625 -8.703125 C 24.109375 -5.691406 22.675781 -3.410156 20.46875 -1.859375 C 18.257812 -0.304688 15.789062 0.46875 13.0625 0.46875 C 9.632812 0.46875 6.71875 -0.8125 4.3125 -3.375 C 1.90625 -5.9375 0.703125 -9.03125 0.703125 -12.65625 C 0.703125 -16.34375 1.878906 -19.457031 4.234375 -22 C 6.597656 -24.539062 9.539062 -25.8125 13.0625 -25.8125 C 17.175781 -25.8125 20.429688 -24.367188 22.828125 -21.484375 L 19.0625 -17.328125 C 17.707031 -19.503906 15.820312 -20.59375 13.40625 -20.59375 C 11.613281 -20.59375 10.085938 -19.816406 8.828125 -18.265625 C 7.578125 -16.722656 6.953125 -14.851562 6.953125 -12.65625 C 6.953125 -10.507812 7.578125 -8.671875 8.828125 -7.140625 C 10.085938 -5.617188 11.613281 -4.859375 13.40625 -4.859375 C 14.875 -4.859375 16.15625 -5.300781 17.25 -6.1875 C 18.351562 -7.082031 18.90625 -8.269531 18.90625 -9.75 L 13.0625 -9.75 L 13.0625 -14.203125 Z M 24.765625 -14.203125 "/></g></g></g><g fill="#ffffff" fill-opacity="1"><g transform="translate(142.525498, 72.188884)"><g><path d="M 1.84375 0 L 1.84375 -15.765625 L 7.28125 -15.765625 L 7.28125 -13.5 L 7.34375 -13.5 C 7.382812 -13.570312 7.453125 -13.671875 7.546875 -13.796875 C 7.640625 -13.921875 7.835938 -14.132812 8.140625 -14.4375 C 8.453125 -14.75 8.78125 -15.023438 9.125 -15.265625 C 9.476562 -15.515625 9.929688 -15.738281 10.484375 -15.9375 C 11.035156 -16.132812 11.597656 -16.234375 12.171875 -16.234375 C 12.765625 -16.234375 13.347656 -16.148438 13.921875 -15.984375 C 14.492188 -15.816406 14.914062 -15.648438 15.1875 -15.484375 L 15.609375 -15.25 L 13.34375 -10.640625 C 12.664062 -11.210938 11.722656 -11.5 10.515625 -11.5 C 9.859375 -11.5 9.289062 -11.351562 8.8125 -11.0625 C 8.34375 -10.78125 8.007812 -10.429688 7.8125 -10.015625 C 7.625 -9.609375 7.488281 -9.257812 7.40625 -8.96875 C 7.320312 -8.6875 7.28125 -8.460938 7.28125 -8.296875 L 7.28125 0 Z M 1.84375 0 "/></g></g></g><g fill="#ffffff" fill-opacity="1"><g transform="translate(157.520514, 72.188884)"><g><path d="M 2.90625 -1.9375 C 1.4375 -3.550781 0.703125 -5.523438 0.703125 -7.859375 C 0.703125 -10.203125 1.4375 -12.179688 2.90625 -13.796875 C 4.382812 -15.421875 6.265625 -16.234375 8.546875 -16.234375 C 10.628906 -16.234375 12.347656 -15.578125 13.703125 -14.265625 L 13.703125 -15.765625 L 19.140625 -15.765625 L 19.140625 0 L 13.765625 0 L 13.765625 -1.78125 L 13.703125 -1.78125 C 12.347656 -0.28125 10.628906 0.46875 8.546875 0.46875 C 6.265625 0.46875 4.382812 -0.332031 2.90625 -1.9375 Z M 7.546875 -10.546875 C 6.835938 -9.847656 6.484375 -8.953125 6.484375 -7.859375 C 6.484375 -6.773438 6.820312 -5.890625 7.5 -5.203125 C 8.175781 -4.523438 9.066406 -4.1875 10.171875 -4.1875 C 11.234375 -4.1875 12.109375 -4.53125 12.796875 -5.21875 C 13.484375 -5.914062 13.828125 -6.800781 13.828125 -7.875 C 13.828125 -8.957031 13.472656 -9.847656 12.765625 -10.546875 C 12.054688 -11.242188 11.191406 -11.59375 10.171875 -11.59375 C 9.128906 -11.59375 8.253906 -11.242188 7.546875 -10.546875 Z M 7.546875 -10.546875 "/></g></g></g><g fill="#ffffff" fill-opacity="1"><g transform="translate(178.200144, 72.188884)"><g><path d="M 1.84375 0 L 1.84375 -15.765625 L 7.28125 -15.765625 L 7.28125 -14.109375 L 7.34375 -14.109375 C 8.757812 -15.523438 10.265625 -16.234375 11.859375 -16.234375 C 12.640625 -16.234375 13.414062 -16.128906 14.1875 -15.921875 C 14.957031 -15.710938 15.691406 -15.394531 16.390625 -14.96875 C 17.097656 -14.539062 17.671875 -13.929688 18.109375 -13.140625 C 18.554688 -12.347656 18.78125 -11.429688 18.78125 -10.390625 L 18.78125 0 L 13.34375 0 L 13.34375 -8.90625 C 13.34375 -9.726562 13.078125 -10.445312 12.546875 -11.0625 C 12.023438 -11.675781 11.347656 -11.984375 10.515625 -11.984375 C 9.691406 -11.984375 8.945312 -11.664062 8.28125 -11.03125 C 7.613281 -10.394531 7.28125 -9.6875 7.28125 -8.90625 L 7.28125 0 Z M 1.84375 0 "/></g></g></g><g fill="#ffffff" fill-opacity="1"><g transform="translate(198.203774, 72.188884)"><g><path d="M 2.90625 -1.9375 C 1.4375 -3.550781 0.703125 -5.523438 0.703125 -7.859375 C 0.703125 -10.203125 1.4375 -12.179688 2.90625 -13.796875 C 4.382812 -15.421875 6.265625 -16.234375 8.546875 -16.234375 C 10.628906 -16.234375 12.347656 -15.578125 13.703125 -14.265625 L 13.703125 -26.4375 L 19.140625 -26.4375 L 19.140625 0 L 13.765625 0 L 13.765625 -1.78125 L 13.703125 -1.78125 C 12.347656 -0.28125 10.628906 0.46875 8.546875 0.46875 C 6.265625 0.46875 4.382812 -0.332031 2.90625 -1.9375 Z M 7.546875 -10.546875 C 6.835938 -9.847656 6.484375 -8.953125 6.484375 -7.859375 C 6.484375 -6.773438 6.820312 -5.890625 7.5 -5.203125 C 8.175781 -4.523438 9.066406 -4.1875 10.171875 -4.1875 C 11.234375 -4.1875 12.109375 -4.53125 12.796875 -5.21875 C 13.484375 -5.914062 13.828125 -6.800781 13.828125 -7.875 C 13.828125 -8.957031 13.472656 -9.847656 12.765625 -10.546875 C 12.054688 -11.242188 11.191406 -11.59375 10.171875 -11.59375 C 9.128906 -11.59375 8.253906 -11.242188 7.546875 -10.546875 Z M 7.546875 -10.546875 "/></g></g></g><g fill="#ffffff" fill-opacity="1"><g transform="translate(218.883404, 72.188884)"><g><path d="M 3.328125 -1.859375 C 1.578125 -3.421875 0.703125 -5.421875 0.703125 -7.859375 C 0.703125 -10.304688 1.613281 -12.3125 3.4375 -13.875 C 5.257812 -15.445312 7.515625 -16.234375 10.203125 -16.234375 C 12.847656 -16.234375 15.078125 -15.441406 16.890625 -13.859375 C 18.703125 -12.285156 19.609375 -10.285156 19.609375 -7.859375 C 19.609375 -5.441406 18.722656 -3.445312 16.953125 -1.875 C 15.179688 -0.3125 12.929688 0.46875 10.203125 0.46875 C 7.378906 0.46875 5.085938 -0.304688 3.328125 -1.859375 Z M 7.546875 -10.546875 C 6.835938 -9.847656 6.484375 -8.953125 6.484375 -7.859375 C 6.484375 -6.773438 6.820312 -5.890625 7.5 -5.203125 C 8.175781 -4.523438 9.066406 -4.1875 10.171875 -4.1875 C 11.234375 -4.1875 12.109375 -4.53125 12.796875 -5.21875 C 13.484375 -5.914062 13.828125 -6.800781 13.828125 -7.875 C 13.828125 -8.957031 13.472656 -9.847656 12.765625 -10.546875 C 12.054688 -11.242188 11.191406 -11.59375 10.171875 -11.59375 C 9.128906 -11.59375 8.253906 -11.242188 7.546875 -10.546875 Z M 7.546875 -10.546875 "/></g></g></g><path stroke-linecap="round" transform="matrix(0.745192, 0.000000000000000042, -0.000000000000000042, 0.745192, 27.833074, 88.762499)" fill="none" stroke-linejoin="miter" d="M 0.501827 0.502179 L 251.564345 0.502179 " stroke="#ffffff" stroke-width="1" stroke-opacity="1" stroke-miterlimit="4"/><g fill="#ffffff" fill-opacity="1"><g transform="translate(39.828053, 105.398428)"><g><path d="M 0.6875 -7.453125 L 5.59375 -7.453125 L 5.59375 -6.1875 L 2.125 -6.1875 L 2.125 -4.265625 L 5.328125 -4.265625 L 5.328125 -2.984375 L 2.125 -2.984375 L 2.125 0 L 0.6875 0 Z M 0.6875 -7.453125 "/></g></g></g><g fill="#ffffff" fill-opacity="1"><g transform="translate(49.088812, 105.398428)"><g><path d="M 0.6875 -1.171875 L 2.03125 -1.171875 L 2.03125 -4.46875 L 0.90625 -4.46875 L 0.90625 -5.640625 L 2.875 -5.640625 L 3.09375 -4.90625 L 3.25 -4.90625 C 3.351562 -5.164062 3.53125 -5.351562 3.78125 -5.46875 C 4.039062 -5.582031 4.304688 -5.640625 4.578125 -5.640625 L 5.703125 -5.640625 L 5.703125 -4.421875 L 4.734375 -4.421875 C 4.285156 -4.421875 3.929688 -4.296875 3.671875 -4.046875 C 3.421875 -3.796875 3.296875 -3.457031 3.296875 -3.03125 L 3.296875 -1.171875 L 5.171875 -1.171875 L 5.171875 0 L 0.6875 0 Z M 0.6875 -1.171875 "/></g></g></g><g fill="#ffffff" fill-opacity="1"><g transform="translate(58.34957, 105.398428)"><g><path d="M 3.203125 0.109375 C 2.796875 0.109375 2.425781 0.0390625 2.09375 -0.09375 C 1.757812 -0.226562 1.472656 -0.421875 1.234375 -0.671875 C 0.992188 -0.929688 0.804688 -1.238281 0.671875 -1.59375 C 0.546875 -1.957031 0.484375 -2.367188 0.484375 -2.828125 C 0.484375 -3.273438 0.546875 -3.679688 0.671875 -4.046875 C 0.804688 -4.410156 0.992188 -4.71875 1.234375 -4.96875 C 1.472656 -5.21875 1.757812 -5.410156 2.09375 -5.546875 C 2.425781 -5.679688 2.796875 -5.75 3.203125 -5.75 C 3.597656 -5.75 3.960938 -5.679688 4.296875 -5.546875 C 4.628906 -5.410156 4.914062 -5.21875 5.15625 -4.96875 C 5.394531 -4.71875 5.582031 -4.410156 5.71875 -4.046875 C 5.851562 -3.679688 5.921875 -3.273438 5.921875 -2.828125 C 5.921875 -2.367188 5.851562 -1.957031 5.71875 -1.59375 C 5.582031 -1.238281 5.394531 -0.929688 5.15625 -0.671875 C 4.914062 -0.421875 4.628906 -0.226562 4.296875 -0.09375 C 3.960938 0.0390625 3.597656 0.109375 3.203125 0.109375 Z M 3.203125 -1.0625 C 3.628906 -1.0625 3.972656 -1.207031 4.234375 -1.5 C 4.503906 -1.789062 4.640625 -2.234375 4.640625 -2.828125 C 4.640625 -3.410156 4.503906 -3.847656 4.234375 -4.140625 C 3.972656 -4.429688 3.628906 -4.578125 3.203125 -4.578125 C 2.773438 -4.578125 2.425781 -4.429688 2.15625 -4.140625 C 1.894531 -3.847656 1.765625 -3.410156 1.765625 -2.828125 C 1.765625 -2.234375 1.894531 -1.789062 2.15625 -1.5 C 2.425781 -1.207031 2.773438 -1.0625 3.203125 -1.0625 Z M 3.203125 -1.0625 "/></g></g></g><g fill="#ffffff" fill-opacity="1"><g transform="translate(67.610329, 105.398428)"><g><path d="M 0.796875 -5.640625 L 1.921875 -5.640625 L 2.03125 -5.171875 L 2.078125 -5.171875 C 2.242188 -5.359375 2.445312 -5.5 2.6875 -5.59375 C 2.9375 -5.695312 3.210938 -5.75 3.515625 -5.75 C 4.148438 -5.75 4.660156 -5.550781 5.046875 -5.15625 C 5.441406 -4.769531 5.640625 -4.207031 5.640625 -3.46875 L 5.640625 0 L 4.375 0 L 4.375 -3.40625 C 4.375 -3.78125 4.265625 -4.066406 4.046875 -4.265625 C 3.835938 -4.472656 3.570312 -4.578125 3.25 -4.578125 C 3.082031 -4.578125 2.925781 -4.546875 2.78125 -4.484375 C 2.644531 -4.429688 2.523438 -4.351562 2.421875 -4.25 C 2.316406 -4.15625 2.234375 -4.035156 2.171875 -3.890625 C 2.109375 -3.742188 2.078125 -3.582031 2.078125 -3.40625 L 2.078125 0 L 0.796875 0 Z M 0.796875 -5.640625 "/></g></g></g><g fill="#ffffff" fill-opacity="1"><g transform="translate(76.871087, 105.398428)"><g><path d="M 3.84375 0.109375 C 3.53125 0.109375 3.242188 0.0546875 2.984375 -0.046875 C 2.734375 -0.148438 2.515625 -0.296875 2.328125 -0.484375 C 2.148438 -0.671875 2.007812 -0.898438 1.90625 -1.171875 C 1.8125 -1.441406 1.765625 -1.742188 1.765625 -2.078125 L 1.765625 -4.46875 L 0.375 -4.46875 L 0.375 -5.640625 L 1.765625 -5.640625 L 1.96875 -7.140625 L 3.03125 -7.140625 L 3.03125 -5.640625 L 5.109375 -5.640625 L 5.109375 -4.46875 L 3.03125 -4.46875 L 3.03125 -2.078125 C 3.03125 -1.734375 3.101562 -1.476562 3.25 -1.3125 C 3.394531 -1.144531 3.59375 -1.0625 3.84375 -1.0625 C 4.082031 -1.0625 4.273438 -1.125 4.421875 -1.25 C 4.566406 -1.375 4.65625 -1.597656 4.6875 -1.921875 L 5.96875 -1.921875 C 5.96875 -1.609375 5.910156 -1.328125 5.796875 -1.078125 C 5.691406 -0.835938 5.546875 -0.628906 5.359375 -0.453125 C 5.171875 -0.273438 4.945312 -0.132812 4.6875 -0.03125 C 4.425781 0.0625 4.144531 0.109375 3.84375 0.109375 Z M 3.84375 0.109375 "/></g></g></g><g fill="#ffffff" fill-opacity="1"><g transform="translate(86.131846, 105.398428)"><g><path d="M 3.25 0.109375 C 2.820312 0.109375 2.4375 0.046875 2.09375 -0.078125 C 1.757812 -0.210938 1.46875 -0.40625 1.21875 -0.65625 C 0.976562 -0.90625 0.796875 -1.210938 0.671875 -1.578125 C 0.546875 -1.941406 0.484375 -2.359375 0.484375 -2.828125 C 0.484375 -3.296875 0.546875 -3.707031 0.671875 -4.0625 C 0.796875 -4.425781 0.976562 -4.734375 1.21875 -4.984375 C 1.46875 -5.234375 1.757812 -5.421875 2.09375 -5.546875 C 2.4375 -5.679688 2.820312 -5.75 3.25 -5.75 C 3.644531 -5.75 4.003906 -5.6875 4.328125 -5.5625 C 4.660156 -5.4375 4.941406 -5.25 5.171875 -5 C 5.410156 -4.757812 5.59375 -4.46875 5.71875 -4.125 C 5.851562 -3.789062 5.921875 -3.410156 5.921875 -2.984375 C 5.921875 -2.898438 5.914062 -2.820312 5.90625 -2.75 C 5.894531 -2.6875 5.882812 -2.625 5.875 -2.5625 C 5.875 -2.5 5.867188 -2.441406 5.859375 -2.390625 L 1.765625 -2.390625 C 1.816406 -2.015625 1.960938 -1.695312 2.203125 -1.4375 C 2.441406 -1.1875 2.773438 -1.0625 3.203125 -1.0625 C 3.546875 -1.0625 3.8125 -1.125 4 -1.25 C 4.195312 -1.382812 4.332031 -1.535156 4.40625 -1.703125 L 5.6875 -1.703125 C 5.632812 -1.503906 5.550781 -1.296875 5.4375 -1.078125 C 5.332031 -0.867188 5.179688 -0.675781 4.984375 -0.5 C 4.796875 -0.320312 4.554688 -0.175781 4.265625 -0.0625 C 3.984375 0.0507812 3.644531 0.109375 3.25 0.109375 Z M 4.640625 -3.296875 C 4.585938 -3.679688 4.441406 -3.988281 4.203125 -4.21875 C 3.960938 -4.457031 3.628906 -4.578125 3.203125 -4.578125 C 2.773438 -4.578125 2.441406 -4.457031 2.203125 -4.21875 C 1.960938 -3.988281 1.816406 -3.679688 1.765625 -3.296875 Z M 4.640625 -3.296875 "/></g></g></g><g fill="#ffffff" fill-opacity="1"><g transform="translate(95.392605, 105.398428)"><g><path d="M 0.796875 -5.640625 L 1.921875 -5.640625 L 2.03125 -5.171875 L 2.078125 -5.171875 C 2.242188 -5.359375 2.445312 -5.5 2.6875 -5.59375 C 2.9375 -5.695312 3.210938 -5.75 3.515625 -5.75 C 4.148438 -5.75 4.660156 -5.550781 5.046875 -5.15625 C 5.441406 -4.769531 5.640625 -4.207031 5.640625 -3.46875 L 5.640625 0 L 4.375 0 L 4.375 -3.40625 C 4.375 -3.78125 4.265625 -4.066406 4.046875 -4.265625 C 3.835938 -4.472656 3.570312 -4.578125 3.25 -4.578125 C 3.082031 -4.578125 2.925781 -4.546875 2.78125 -4.484375 C 2.644531 -4.429688 2.523438 -4.351562 2.421875 -4.25 C 2.316406 -4.15625 2.234375 -4.035156 2.171875 -3.890625 C 2.109375 -3.742188 2.078125 -3.582031 2.078125 -3.40625 L 2.078125 0 L 0.796875 0 Z M 0.796875 -5.640625 "/></g></g></g><g fill="#ffffff" fill-opacity="1"><g transform="translate(104.653366, 105.398428)"><g><path d="M 2.765625 0.109375 C 2.429688 0.109375 2.125 0.0507812 1.84375 -0.0625 C 1.5625 -0.1875 1.320312 -0.367188 1.125 -0.609375 C 0.925781 -0.859375 0.769531 -1.164062 0.65625 -1.53125 C 0.539062 -1.90625 0.484375 -2.335938 0.484375 -2.828125 C 0.484375 -3.316406 0.539062 -3.742188 0.65625 -4.109375 C 0.769531 -4.484375 0.925781 -4.789062 1.125 -5.03125 C 1.320312 -5.269531 1.5625 -5.445312 1.84375 -5.5625 C 2.125 -5.6875 2.429688 -5.75 2.765625 -5.75 C 2.960938 -5.75 3.140625 -5.722656 3.296875 -5.671875 C 3.460938 -5.617188 3.601562 -5.554688 3.71875 -5.484375 C 3.84375 -5.421875 3.941406 -5.351562 4.015625 -5.28125 C 4.097656 -5.207031 4.160156 -5.148438 4.203125 -5.109375 L 4.265625 -5.109375 L 4.265625 -7.453125 L 5.546875 -7.453125 L 5.546875 0 L 4.421875 0 L 4.3125 -0.59375 L 4.265625 -0.59375 C 4.234375 -0.539062 4.175781 -0.476562 4.09375 -0.40625 C 4.007812 -0.332031 3.898438 -0.253906 3.765625 -0.171875 C 3.640625 -0.0976562 3.488281 -0.0351562 3.3125 0.015625 C 3.144531 0.078125 2.960938 0.109375 2.765625 0.109375 Z M 3.03125 -1.0625 C 3.207031 -1.0625 3.375 -1.097656 3.53125 -1.171875 C 3.6875 -1.253906 3.820312 -1.363281 3.9375 -1.5 C 4.050781 -1.644531 4.140625 -1.828125 4.203125 -2.046875 C 4.273438 -2.273438 4.3125 -2.535156 4.3125 -2.828125 C 4.3125 -3.117188 4.273438 -3.375 4.203125 -3.59375 C 4.140625 -3.8125 4.050781 -3.992188 3.9375 -4.140625 C 3.820312 -4.285156 3.6875 -4.394531 3.53125 -4.46875 C 3.375 -4.539062 3.207031 -4.578125 3.03125 -4.578125 C 2.65625 -4.578125 2.347656 -4.429688 2.109375 -4.140625 C 1.878906 -3.847656 1.765625 -3.410156 1.765625 -2.828125 C 1.765625 -2.234375 1.878906 -1.789062 2.109375 -1.5 C 2.347656 -1.207031 2.65625 -1.0625 3.03125 -1.0625 Z M 3.03125 -1.0625 "/></g></g></g><g fill="#ffffff" fill-opacity="1"><g transform="translate(113.914122, 105.398428)"><g/></g></g><g fill="#ffffff" fill-opacity="1"><g transform="translate(123.174878, 105.398428)"><g><path d="M 0.59375 -7.453125 L 2.671875 -7.453125 C 3.160156 -7.453125 3.613281 -7.363281 4.03125 -7.1875 C 4.445312 -7.019531 4.804688 -6.773438 5.109375 -6.453125 C 5.410156 -6.128906 5.644531 -5.738281 5.8125 -5.28125 C 5.988281 -4.820312 6.078125 -4.304688 6.078125 -3.734375 C 6.078125 -3.148438 5.988281 -2.628906 5.8125 -2.171875 C 5.644531 -1.710938 5.410156 -1.320312 5.109375 -1 C 4.804688 -0.675781 4.445312 -0.425781 4.03125 -0.25 C 3.613281 -0.0820312 3.160156 0 2.671875 0 L 0.59375 0 Z M 2.609375 -1.28125 C 2.890625 -1.28125 3.148438 -1.332031 3.390625 -1.4375 C 3.640625 -1.550781 3.851562 -1.710938 4.03125 -1.921875 C 4.21875 -2.128906 4.363281 -2.382812 4.46875 -2.6875 C 4.582031 -3 4.640625 -3.347656 4.640625 -3.734375 C 4.640625 -4.117188 4.582031 -4.460938 4.46875 -4.765625 C 4.363281 -5.066406 4.21875 -5.320312 4.03125 -5.53125 C 3.851562 -5.738281 3.640625 -5.898438 3.390625 -6.015625 C 3.148438 -6.128906 2.890625 -6.1875 2.609375 -6.1875 L 2.03125 -6.1875 L 2.03125 -1.28125 Z M 2.609375 -1.28125 "/></g></g></g><g fill="#ffffff" fill-opacity="1"><g transform="translate(132.435633, 105.398428)"><g><path d="M 3.25 0.109375 C 2.820312 0.109375 2.4375 0.046875 2.09375 -0.078125 C 1.757812 -0.210938 1.46875 -0.40625 1.21875 -0.65625 C 0.976562 -0.90625 0.796875 -1.210938 0.671875 -1.578125 C 0.546875 -1.941406 0.484375 -2.359375 0.484375 -2.828125 C 0.484375 -3.296875 0.546875 -3.707031 0.671875 -4.0625 C 0.796875 -4.425781 0.976562 -4.734375 1.21875 -4.984375 C 1.46875 -5.234375 1.757812 -5.421875 2.09375 -5.546875 C 2.4375 -5.679688 2.820312 -5.75 3.25 -5.75 C 3.644531 -5.75 4.003906 -5.6875 4.328125 -5.5625 C 4.660156 -5.4375 4.941406 -5.25 5.171875 -5 C 5.410156 -4.757812 5.59375 -4.46875 5.71875 -4.125 C 5.851562 -3.789062 5.921875 -3.410156 5.921875 -2.984375 C 5.921875 -2.898438 5.914062 -2.820312 5.90625 -2.75 C 5.894531 -2.6875 5.882812 -2.625 5.875 -2.5625 C 5.875 -2.5 5.867188 -2.441406 5.859375 -2.390625 L 1.765625 -2.390625 C 1.816406 -2.015625 1.960938 -1.695312 2.203125 -1.4375 C 2.441406 -1.1875 2.773438 -1.0625 3.203125 -1.0625 C 3.546875 -1.0625 3.8125 -1.125 4 -1.25 C 4.195312 -1.382812 4.332031 -1.535156 4.40625 -1.703125 L 5.6875 -1.703125 C 5.632812 -1.503906 5.550781 -1.296875 5.4375 -1.078125 C 5.332031 -0.867188 5.179688 -0.675781 4.984375 -0.5 C 4.796875 -0.320312 4.554688 -0.175781 4.265625 -0.0625 C 3.984375 0.0507812 3.644531 0.109375 3.25 0.109375 Z M 4.640625 -3.296875 C 4.585938 -3.679688 4.441406 -3.988281 4.203125 -4.21875 C 3.960938 -4.457031 3.628906 -4.578125 3.203125 -4.578125 C 2.773438 -4.578125 2.441406 -4.457031 2.203125 -4.21875 C 1.960938 -3.988281 1.816406 -3.679688 1.765625 -3.296875 Z M 4.640625 -3.296875 "/></g></g></g><g fill="#ffffff" fill-opacity="1"><g transform="translate(141.696389, 105.398428)"><g><path d="M 0.3125 -5.640625 L 1.765625 -5.640625 L 2.921875 -1.921875 L 3.09375 -1.015625 L 3.296875 -1.015625 L 3.46875 -1.921875 L 4.640625 -5.640625 L 6.078125 -5.640625 L 4.046875 0 L 2.34375 0 Z M 0.3125 -5.640625 "/></g></g></g><g fill="#ffffff" fill-opacity="1"><g transform="translate(150.957145, 105.398428)"><g><path d="M 3.25 0.109375 C 2.820312 0.109375 2.4375 0.046875 2.09375 -0.078125 C 1.757812 -0.210938 1.46875 -0.40625 1.21875 -0.65625 C 0.976562 -0.90625 0.796875 -1.210938 0.671875 -1.578125 C 0.546875 -1.941406 0.484375 -2.359375 0.484375 -2.828125 C 0.484375 -3.296875 0.546875 -3.707031 0.671875 -4.0625 C 0.796875 -4.425781 0.976562 -4.734375 1.21875 -4.984375 C 1.46875 -5.234375 1.757812 -5.421875 2.09375 -5.546875 C 2.4375 -5.679688 2.820312 -5.75 3.25 -5.75 C 3.644531 -5.75 4.003906 -5.6875 4.328125 -5.5625 C 4.660156 -5.4375 4.941406 -5.25 5.171875 -5 C 5.410156 -4.757812 5.59375 -4.46875 5.71875 -4.125 C 5.851562 -3.789062 5.921875 -3.410156 5.921875 -2.984375 C 5.921875 -2.898438 5.914062 -2.820312 5.90625 -2.75 C 5.894531 -2.6875 5.882812 -2.625 5.875 -2.5625 C 5.875 -2.5 5.867188 -2.441406 5.859375 -2.390625 L 1.765625 -2.390625 C 1.816406 -2.015625 1.960938 -1.695312 2.203125 -1.4375 C 2.441406 -1.1875 2.773438 -1.0625 3.203125 -1.0625 C 3.546875 -1.0625 3.8125 -1.125 4 -1.25 C 4.195312 -1.382812 4.332031 -1.535156 4.40625 -1.703125 L 5.6875 -1.703125 C 5.632812 -1.503906 5.550781 -1.296875 5.4375 -1.078125 C 5.332031 -0.867188 5.179688 -0.675781 4.984375 -0.5 C 4.796875 -0.320312 4.554688 -0.175781 4.265625 -0.0625 C 3.984375 0.0507812 3.644531 0.109375 3.25 0.109375 Z M 4.640625 -3.296875 C 4.585938 -3.679688 4.441406 -3.988281 4.203125 -4.21875 C 3.960938 -4.457031 3.628906 -4.578125 3.203125 -4.578125 C 2.773438 -4.578125 2.441406 -4.457031 2.203125 -4.21875 C 1.960938 -3.988281 1.816406 -3.679688 1.765625 -3.296875 Z M 4.640625 -3.296875 "/></g></g></g><g fill="#ffffff" fill-opacity="1"><g transform="translate(160.2179, 105.398428)"><g><path d="M 0.75 -1.171875 L 2.671875 -1.171875 L 2.671875 -6.28125 L 1.171875 -6.28125 L 1.171875 -7.453125 L 3.9375 -7.453125 L 3.9375 -1.171875 L 5.75 -1.171875 L 5.75 0 L 0.75 0 Z M 0.75 -1.171875 "/></g></g></g><g fill="#ffffff" fill-opacity="1"><g transform="translate(169.478656, 105.398428)"><g><path d="M 3.203125 0.109375 C 2.796875 0.109375 2.425781 0.0390625 2.09375 -0.09375 C 1.757812 -0.226562 1.472656 -0.421875 1.234375 -0.671875 C 0.992188 -0.929688 0.804688 -1.238281 0.671875 -1.59375 C 0.546875 -1.957031 0.484375 -2.367188 0.484375 -2.828125 C 0.484375 -3.273438 0.546875 -3.679688 0.671875 -4.046875 C 0.804688 -4.410156 0.992188 -4.71875 1.234375 -4.96875 C 1.472656 -5.21875 1.757812 -5.410156 2.09375 -5.546875 C 2.425781 -5.679688 2.796875 -5.75 3.203125 -5.75 C 3.597656 -5.75 3.960938 -5.679688 4.296875 -5.546875 C 4.628906 -5.410156 4.914062 -5.21875 5.15625 -4.96875 C 5.394531 -4.71875 5.582031 -4.410156 5.71875 -4.046875 C 5.851562 -3.679688 5.921875 -3.273438 5.921875 -2.828125 C 5.921875 -2.367188 5.851562 -1.957031 5.71875 -1.59375 C 5.582031 -1.238281 5.394531 -0.929688 5.15625 -0.671875 C 4.914062 -0.421875 4.628906 -0.226562 4.296875 -0.09375 C 3.960938 0.0390625 3.597656 0.109375 3.203125 0.109375 Z M 3.203125 -1.0625 C 3.628906 -1.0625 3.972656 -1.207031 4.234375 -1.5 C 4.503906 -1.789062 4.640625 -2.234375 4.640625 -2.828125 C 4.640625 -3.410156 4.503906 -3.847656 4.234375 -4.140625 C 3.972656 -4.429688 3.628906 -4.578125 3.203125 -4.578125 C 2.773438 -4.578125 2.425781 -4.429688 2.15625 -4.140625 C 1.894531 -3.847656 1.765625 -3.410156 1.765625 -2.828125 C 1.765625 -2.234375 1.894531 -1.789062 2.15625 -1.5 C 2.425781 -1.207031 2.773438 -1.0625 3.203125 -1.0625 Z M 3.203125 -1.0625 "/></g></g></g><g fill="#ffffff" fill-opacity="1"><g transform="translate(178.739412, 105.398428)"><g><path d="M 0.859375 -5.640625 L 1.96875 -5.640625 L 2.078125 -5.0625 L 2.125 -5.0625 C 2.15625 -5.101562 2.210938 -5.160156 2.296875 -5.234375 C 2.378906 -5.304688 2.484375 -5.378906 2.609375 -5.453125 C 2.742188 -5.535156 2.894531 -5.601562 3.0625 -5.65625 C 3.238281 -5.71875 3.425781 -5.75 3.625 -5.75 C 3.957031 -5.75 4.265625 -5.6875 4.546875 -5.5625 C 4.828125 -5.445312 5.066406 -5.269531 5.265625 -5.03125 C 5.472656 -4.789062 5.632812 -4.484375 5.75 -4.109375 C 5.863281 -3.742188 5.921875 -3.316406 5.921875 -2.828125 C 5.921875 -2.335938 5.863281 -1.90625 5.75 -1.53125 C 5.632812 -1.164062 5.472656 -0.859375 5.265625 -0.609375 C 5.066406 -0.367188 4.828125 -0.1875 4.546875 -0.0625 C 4.265625 0.0507812 3.957031 0.109375 3.625 0.109375 C 3.425781 0.109375 3.242188 0.0820312 3.078125 0.03125 C 2.921875 -0.0195312 2.78125 -0.078125 2.65625 -0.140625 C 2.539062 -0.210938 2.441406 -0.285156 2.359375 -0.359375 C 2.285156 -0.429688 2.226562 -0.488281 2.1875 -0.53125 L 2.125 -0.53125 L 2.125 2.125 L 0.859375 2.125 Z M 3.359375 -1.0625 C 3.523438 -1.0625 3.6875 -1.097656 3.84375 -1.171875 C 4 -1.253906 4.132812 -1.363281 4.25 -1.5 C 4.375 -1.644531 4.46875 -1.828125 4.53125 -2.046875 C 4.601562 -2.273438 4.640625 -2.535156 4.640625 -2.828125 C 4.640625 -3.117188 4.601562 -3.375 4.53125 -3.59375 C 4.46875 -3.8125 4.375 -3.992188 4.25 -4.140625 C 4.132812 -4.285156 4 -4.394531 3.84375 -4.46875 C 3.6875 -4.539062 3.523438 -4.578125 3.359375 -4.578125 C 2.984375 -4.578125 2.675781 -4.429688 2.4375 -4.140625 C 2.195312 -3.847656 2.078125 -3.410156 2.078125 -2.828125 C 2.078125 -2.234375 2.195312 -1.789062 2.4375 -1.5 C 2.675781 -1.207031 2.984375 -1.0625 3.359375 -1.0625 Z M 3.359375 -1.0625 "/></g></g></g><g fill="#ffffff" fill-opacity="1"><g transform="translate(188.000168, 105.398428)"><g><path d="M 3.25 0.109375 C 2.820312 0.109375 2.4375 0.046875 2.09375 -0.078125 C 1.757812 -0.210938 1.46875 -0.40625 1.21875 -0.65625 C 0.976562 -0.90625 0.796875 -1.210938 0.671875 -1.578125 C 0.546875 -1.941406 0.484375 -2.359375 0.484375 -2.828125 C 0.484375 -3.296875 0.546875 -3.707031 0.671875 -4.0625 C 0.796875 -4.425781 0.976562 -4.734375 1.21875 -4.984375 C 1.46875 -5.234375 1.757812 -5.421875 2.09375 -5.546875 C 2.4375 -5.679688 2.820312 -5.75 3.25 -5.75 C 3.644531 -5.75 4.003906 -5.6875 4.328125 -5.5625 C 4.660156 -5.4375 4.941406 -5.25 5.171875 -5 C 5.410156 -4.757812 5.59375 -4.46875 5.71875 -4.125 C 5.851562 -3.789062 5.921875 -3.410156 5.921875 -2.984375 C 5.921875 -2.898438 5.914062 -2.820312 5.90625 -2.75 C 5.894531 -2.6875 5.882812 -2.625 5.875 -2.5625 C 5.875 -2.5 5.867188 -2.441406 5.859375 -2.390625 L 1.765625 -2.390625 C 1.816406 -2.015625 1.960938 -1.695312 2.203125 -1.4375 C 2.441406 -1.1875 2.773438 -1.0625 3.203125 -1.0625 C 3.546875 -1.0625 3.8125 -1.125 4 -1.25 C 4.195312 -1.382812 4.332031 -1.535156 4.40625 -1.703125 L 5.6875 -1.703125 C 5.632812 -1.503906 5.550781 -1.296875 5.4375 -1.078125 C 5.332031 -0.867188 5.179688 -0.675781 4.984375 -0.5 C 4.796875 -0.320312 4.554688 -0.175781 4.265625 -0.0625 C 3.984375 0.0507812 3.644531 0.109375 3.25 0.109375 Z M 4.640625 -3.296875 C 4.585938 -3.679688 4.441406 -3.988281 4.203125 -4.21875 C 3.960938 -4.457031 3.628906 -4.578125 3.203125 -4.578125 C 2.773438 -4.578125 2.441406 -4.457031 2.203125 -4.21875 C 1.960938 -3.988281 1.816406 -3.679688 1.765625 -3.296875 Z M 4.640625 -3.296875 "/></g></g></g><g fill="#ffffff" fill-opacity="1"><g transform="translate(197.260923, 105.398428)"><g><path d="M 0.6875 -1.171875 L 2.03125 -1.171875 L 2.03125 -4.46875 L 0.90625 -4.46875 L 0.90625 -5.640625 L 2.875 -5.640625 L 3.09375 -4.90625 L 3.25 -4.90625 C 3.351562 -5.164062 3.53125 -5.351562 3.78125 -5.46875 C 4.039062 -5.582031 4.304688 -5.640625 4.578125 -5.640625 L 5.703125 -5.640625 L 5.703125 -4.421875 L 4.734375 -4.421875 C 4.285156 -4.421875 3.929688 -4.296875 3.671875 -4.046875 C 3.421875 -3.796875 3.296875 -3.457031 3.296875 -3.03125 L 3.296875 -1.171875 L 5.171875 -1.171875 L 5.171875 0 L 0.6875 0 Z M 0.6875 -1.171875 "/></g></g></g></svg>